<?xml version="1.0" standalone="no"?>
<!DOCTYPE svg PUBLIC "-//W3C//DTD SVG 20010904//EN"
 "http://www.w3.org/TR/2001/REC-SVG-20010904/DTD/svg10.dtd">
<svg version="1.0" xmlns="http://www.w3.org/2000/svg"
 width="1280.000000pt" height="1280.000000pt" viewBox="0 0 1280.000000 1280.000000"
 preserveAspectRatio="xMidYMid meet">

<g transform="translate(0.000000,1280.000000) scale(0.100000,-0.100000)"
fill="#000000" stroke="none">
<path d="M7043 12233 c-27 -27 -60 -63 -74 -80 l-24 -33 -135 12 c-116 10
-141 9 -180 -4 l-45 -15 3 -46 c3 -38 0 -47 -12 -47 -9 0 -16 -5 -16 -10 0 -6
6 -10 13 -8 12 2 87 -67 87 -82 0 -4 9 -10 20 -13 11 -3 20 -11 20 -17 0 -8
-8 -10 -21 -7 -16 4 -18 3 -9 -8 8 -10 7 -14 -2 -18 -7 -2 -20 8 -28 23 -47
82 -62 100 -88 99 -20 0 -23 -2 -10 -7 30 -12 5 -29 -52 -36 -42 -5 -60 -3
-75 8 -20 16 -20 16 5 36 14 11 39 24 55 29 l30 9 -28 1 c-15 1 -44 -6 -63
-14 -36 -15 -36 -15 -31 8 19 76 18 82 -2 38 -12 -24 -21 -49 -21 -55 0 -13
-28 -30 -68 -41 -13 -4 -30 -23 -41 -47 -11 -25 -21 -36 -25 -29 -4 7 -15 9
-25 6 -15 -4 -17 3 -16 54 0 33 3 63 8 67 19 19 4 25 -16 6 l-23 -22 -46 48
c-58 62 -118 83 -213 77 -52 -3 -73 -9 -91 -26 -21 -19 -31 -21 -91 -16 l-68
6 48 -15 c36 -11 47 -19 47 -35 0 -14 -4 -18 -12 -12 -21 13 -40 15 -120 17
-42 0 -80 4 -84 9 -4 4 -3 7 3 7 6 0 13 6 16 14 8 21 -159 13 -204 -9 -49 -25
-102 -77 -87 -86 9 -6 8 -11 -2 -24 -9 -10 -16 -12 -20 -5 -7 11 -60 -42 -60
-59 0 -13 -52 -91 -61 -91 -4 0 -10 -6 -12 -12 -2 -7 -3 0 0 17 2 16 15 47 28
67 20 30 22 38 10 38 -8 0 -15 -6 -15 -13 0 -7 -9 -18 -19 -24 -11 -7 -22 -26
-26 -43 -5 -22 -16 -34 -41 -45 -19 -8 -34 -17 -34 -20 0 -3 9 -1 21 5 26 14
40 3 17 -14 -14 -10 -14 -14 -3 -22 12 -7 12 -16 3 -45 -10 -31 -16 -35 -45
-36 -40 -1 -41 3 -7 33 18 18 23 28 16 40 -7 13 -20 5 -72 -45 -41 -40 -71
-61 -86 -61 -15 0 -24 -6 -24 -15 0 -8 -3 -15 -7 -15 -77 -3 -158 -12 -171
-19 -15 -9 -15 -11 3 -12 11 -1 26 -2 33 -2 24 1 11 -18 -22 -32 -71 -30 -156
-140 -156 -203 0 -15 -6 -39 -14 -53 -24 -46 -39 -130 -33 -185 4 -39 2 -56
-9 -65 -16 -13 -54 -90 -54 -108 0 -17 -20 -13 -27 5 -3 9 3 21 16 30 24 17
28 34 7 34 -23 0 -39 -29 -47 -88 -5 -36 -14 -61 -26 -69 -15 -11 -15 -17 -5
-33 17 -28 15 -31 -13 -24 -21 5 -25 3 -25 -15 0 -22 -14 -28 -25 -11 -11 17
-32 11 -38 -11 -3 -12 -13 -20 -24 -19 -40 5 -60 -2 -93 -30 -19 -17 -44 -38
-56 -48 -12 -10 -27 -28 -34 -41 -14 -28 -60 -70 -75 -71 -17 0 -81 -71 -104
-115 -12 -22 -24 -57 -27 -77 -4 -20 -15 -46 -25 -57 -20 -21 -26 -47 -9 -36
19 12 22 -24 3 -49 -23 -33 -31 -33 -25 0 8 43 -14 20 -32 -33 -9 -26 -24 -56
-34 -67 -11 -12 -25 -37 -32 -56 -7 -19 -26 -62 -43 -95 -28 -56 -40 -114 -52
-258 -3 -27 -7 -52 -10 -58 -4 -5 1 -9 9 -9 10 0 16 -9 16 -22 -1 -23 -1 -23
-16 -3 l-15 20 -11 -20 c-7 -11 -13 -30 -14 -43 -2 -13 -8 -30 -15 -39 -10
-12 -10 -16 2 -24 12 -7 11 -9 -2 -9 -17 0 -49 -55 -49 -84 0 -9 -4 -16 -9
-16 -13 0 -7 -266 7 -282 7 -10 8 -27 1 -56 -8 -35 -6 -49 8 -73 15 -25 16
-31 4 -39 -12 -7 -12 -12 3 -35 14 -21 15 -29 5 -41 -16 -20 -28 -18 -22 5 3
11 -2 21 -12 25 -14 5 -16 15 -11 54 5 40 4 43 -6 22 -6 -14 -12 -49 -13 -77
-1 -29 -8 -59 -14 -67 -14 -17 -7 -52 18 -79 15 -17 14 -20 -3 -33 -17 -12
-17 -14 -3 -20 10 -3 17 -14 17 -23 0 -9 5 -22 12 -29 9 -9 9 -15 0 -24 -15
-15 -16 -48 -1 -48 5 0 8 4 5 9 -3 5 2 19 12 31 17 21 17 20 12 -37 -3 -32 -9
-58 -15 -58 -5 0 -19 -6 -29 -12 -17 -9 -18 -15 -9 -35 l11 -23 10 25 c11 25
11 24 11 -7 1 -18 -3 -33 -9 -33 -13 0 -13 -34 0 -74 19 -65 34 -132 32 -147
-2 -8 4 -29 13 -45 8 -16 15 -47 15 -69 1 -89 25 -179 60 -230 30 -43 34 -57
32 -104 -1 -30 3 -60 10 -68 20 -24 47 -116 44 -153 -1 -20 5 -48 17 -68 40
-67 29 -364 -13 -346 -23 11 -97 16 -85 7 6 -4 10 -12 10 -18 1 -5 7 -22 15
-38 16 -32 6 -49 -14 -22 -10 14 -15 15 -21 5 -4 -7 -2 -16 6 -21 11 -7 11 -9
-2 -9 -9 0 -19 -7 -23 -15 -7 -20 23 -55 42 -48 22 9 10 -18 -14 -31 -10 -6
-22 -14 -25 -19 -6 -8 -41 29 -58 62 -11 20 -69 57 -76 49 -2 -2 -5 -52 -6
-111 -1 -59 -8 -140 -15 -179 -18 -95 -11 -233 15 -290 10 -24 35 -92 56 -153
42 -126 57 -165 66 -165 16 0 16 15 1 38 -16 25 -16 25 6 13 14 -8 22 -8 22
-1 0 5 -5 10 -11 10 -14 0 1 286 16 311 4 6 24 121 32 179 2 19 8 39 14 45 5
5 9 20 9 34 l0 25 20 -22 c11 -12 20 -25 19 -29 -1 -4 -1 -15 0 -23 1 -13 3
-13 11 1 11 20 19 128 23 306 1 73 5 133 9 133 5 0 7 3 6 8 -1 4 2 27 6 52 3
25 11 104 16 175 6 72 13 146 15 165 5 33 9 67 35 360 6 69 15 161 21 205 6
44 11 91 11 105 1 30 37 261 43 270 2 4 7 47 10 96 11 153 12 165 19 171 3 3
1 12 -5 20 -9 9 -8 13 0 13 6 0 11 9 11 20 0 11 -3 20 -7 20 -8 0 -10 19 -13
94 -1 21 -8 45 -16 53 -15 15 -10 89 7 107 5 6 9 21 9 34 0 30 20 102 33 119
5 7 6 17 3 22 -4 6 -2 18 4 28 12 22 70 201 70 218 0 7 7 18 15 25 8 7 15 19
15 27 0 8 11 28 25 44 13 16 22 35 19 42 -2 7 4 22 16 32 11 10 20 26 20 36 0
9 12 27 28 38 24 18 25 20 7 21 -18 1 -18 2 3 10 12 5 22 14 22 19 0 6 7 7 17
4 11 -4 14 -3 9 5 -4 7 -1 15 8 18 9 3 16 11 16 16 0 6 9 19 21 29 11 9 21 21
22 26 1 4 4 7 7 7 3 -1 15 -5 28 -9 21 -6 22 -4 16 19 -3 14 -2 26 2 27 71 9
84 5 96 -23 15 -33 28 -37 28 -8 0 11 7 20 15 20 8 0 15 6 15 14 0 19 20 32
29 19 11 -18 39 -11 34 8 -3 10 2 26 11 34 17 18 19 15 17 -30 l-1 -30 11 25
c6 14 16 36 22 50 l10 25 8 -30 c6 -28 10 -29 13 -6 0 5 4 13 8 17 4 4 3 13
-3 20 -14 17 10 88 31 91 59 8 108 26 104 37 -3 7 3 19 12 27 13 11 18 11 21
2 3 -7 9 -13 15 -13 6 0 4 8 -5 18 -21 23 -22 36 -2 28 12 -4 14 0 9 19 -5 19
-2 25 10 25 9 0 16 -6 16 -14 0 -9 16 -17 43 -21 23 -4 47 -11 54 -17 19 -15
27 11 9 31 -17 19 -21 32 -8 29 4 -1 20 4 35 10 21 9 27 17 23 30 -4 12 3 27
19 42 22 21 28 22 35 10 6 -9 5 -19 0 -24 -19 -19 -11 -37 16 -34 21 2 30 -4
45 -32 11 -21 19 -28 19 -17 0 9 7 17 15 17 22 0 18 -27 -5 -40 -11 -6 -20
-17 -20 -25 0 -22 13 -18 35 12 11 14 25 32 31 38 7 6 14 20 17 31 4 16 5 16
6 2 0 -10 6 -18 11 -18 12 0 12 2 0 34 -9 24 -8 25 19 20 23 -5 29 -2 34 15 3
12 12 21 21 21 9 0 16 5 16 10 0 6 15 10 34 10 19 0 38 -4 41 -10 3 -5 2 -10
-3 -10 -5 0 -12 -9 -15 -20 -4 -15 -14 -20 -36 -20 -34 0 -42 -15 -12 -25 22
-7 51 3 51 17 0 6 11 7 25 4 17 -4 31 0 45 14 11 11 26 17 36 13 13 -5 15 -2
10 15 -6 17 -4 21 8 16 9 -3 14 -10 11 -14 -3 -5 -1 -11 5 -15 5 -3 10 1 10 9
0 9 7 16 15 16 8 0 15 -4 15 -10 0 -5 4 -10 9 -10 5 0 7 9 4 20 -4 14 0 20 11
20 9 0 16 4 16 10 0 5 18 14 40 20 22 6 40 17 40 24 0 18 36 49 49 42 5 -3 11
-1 13 6 7 19 30 -2 25 -22 -3 -11 1 -21 8 -24 8 -3 11 -13 8 -27 -5 -18 -3
-21 11 -16 10 4 20 7 22 7 2 0 -1 9 -8 19 -9 15 -8 26 5 52 9 19 17 27 17 19
0 -10 5 -7 16 8 15 21 72 33 59 12 -9 -14 9 -12 24 3 10 10 16 7 31 -13 l20
-25 0 33 c0 25 4 32 20 32 11 0 20 5 20 12 0 6 3 8 7 5 3 -4 13 -1 21 6 12 9
16 9 19 0 7 -20 23 -15 23 6 0 25 18 37 33 22 6 -6 18 -11 27 -11 17 0 70 -40
54 -40 -5 0 -18 -7 -29 -16 -17 -13 -18 -16 -5 -24 21 -14 30 -12 30 5 0 8 4
15 9 15 14 0 26 -22 23 -42 -3 -17 9 -24 20 -12 11 11 -14 79 -38 102 -23 22
-32 56 -16 65 4 3 16 1 27 -4 11 -4 14 -8 6 -8 -11 -1 -11 -4 -1 -16 8 -10 17
-12 24 -6 7 6 24 3 48 -9 40 -19 98 -31 98 -19 0 4 -11 10 -25 13 -33 8 -41
29 -22 56 14 21 15 21 21 -6 6 -23 11 -26 36 -20 22 4 28 2 24 -8 -3 -8 -1
-17 5 -20 5 -3 15 11 22 31 7 21 14 32 17 24 2 -7 13 -22 23 -32 19 -19 19
-18 19 8 0 25 0 26 20 8 11 -10 20 -13 20 -7 0 7 -4 12 -10 12 -6 0 -5 10 2
25 15 33 42 32 57 -2 10 -21 14 -24 21 -13 5 8 13 11 17 6 4 -4 0 -14 -10 -21
-13 -9 -15 -15 -7 -20 7 -4 8 -10 3 -14 -4 -3 -21 -21 -36 -40 -22 -26 -25
-36 -16 -47 20 -25 36 -16 35 19 -1 38 18 49 22 12 4 -30 18 -33 27 -5 8 25
25 17 25 -11 0 -19 1 -19 17 -3 11 11 18 13 21 5 7 -22 20 -11 26 24 8 40 22
45 36 13 l9 -23 7 23 c3 12 14 22 23 22 19 -1 72 -85 65 -104 -3 -8 3 -16 15
-19 12 -3 21 -11 21 -17 0 -7 -7 -10 -15 -6 -19 7 -19 -5 0 -30 14 -19 14 -19
15 1 l1 20 9 -20 c5 -11 9 -36 10 -55 1 -31 2 -33 12 -15 6 11 15 23 20 26 5
3 10 16 11 27 2 26 1 26 32 6 23 -15 25 -15 25 1 0 11 -5 15 -14 12 -8 -3 -17
1 -20 9 -3 7 -2 13 2 13 4 -1 9 0 12 1 36 13 90 -19 90 -54 0 -10 8 -16 24
-16 13 0 30 -10 39 -22 8 -13 19 -19 23 -14 5 4 -1 15 -13 23 -13 9 -23 25
-23 37 1 19 2 19 11 4 14 -25 31 -22 29 5 -4 41 2 42 15 2 8 -22 14 -32 14
-22 1 20 14 22 33 4 7 -7 25 -21 41 -31 33 -22 34 -39 5 -54 -22 -11 -22 -12
7 -9 23 1 30 -2 29 -15 -1 -10 1 -18 5 -18 4 0 27 -18 52 -40 44 -39 59 -48
59 -32 0 9 -63 68 -68 64 -1 -1 -13 10 -25 25 -27 33 -35 83 -15 83 22 0 71
-57 65 -74 -4 -9 5 -20 26 -30 33 -15 67 -49 67 -66 0 -6 8 -10 18 -11 10 0
12 -3 5 -6 -22 -8 -15 -43 8 -43 12 0 28 -8 35 -17 7 -10 21 -18 31 -18 12 0
19 -9 21 -26 2 -16 12 -31 28 -37 25 -12 31 -27 14 -37 -6 -4 -8 -11 -4 -16 8
-14 33 22 26 39 -4 12 -1 12 16 3 13 -7 22 -21 22 -35 0 -29 -10 -39 -26 -25
-8 7 -14 7 -19 -1 -3 -5 2 -13 12 -16 10 -3 26 -10 35 -15 10 -5 24 -9 32 -9
8 0 21 -12 28 -27 7 -16 23 -32 36 -38 12 -5 22 -13 22 -17 0 -4 21 -28 47
-53 41 -41 48 -45 59 -31 17 24 25 19 14 -10 -11 -27 -6 -44 11 -44 6 0 8 10
4 23 -6 20 -4 20 19 -6 14 -15 26 -36 25 -45 0 -10 -3 -12 -6 -4 -6 15 -36 16
-31 0 3 -9 23 -24 46 -34 2 -1 -6 -27 -17 -58 -13 -38 -16 -56 -8 -54 7 3 16
19 22 36 5 18 12 32 16 32 17 0 79 -46 84 -62 4 -10 13 -18 21 -18 8 0 14 -7
14 -15 0 -8 7 -15 15 -15 7 0 18 -8 24 -17 5 -10 22 -18 38 -19 15 -1 31 -3
35 -3 4 -1 5 -8 2 -16 -4 -8 -1 -15 5 -15 6 0 11 -9 11 -19 0 -11 3 -27 6 -36
6 -15 8 -15 24 0 18 16 18 18 -3 53 -12 20 -32 48 -44 62 -13 14 -23 32 -23
42 0 9 -4 20 -10 23 -5 3 -10 13 -10 22 0 8 -11 24 -25 35 -28 22 -32 49 -11
67 11 9 21 5 50 -21 20 -17 36 -39 36 -48 0 -21 20 -40 42 -40 10 0 18 -4 18
-10 0 -5 5 -10 10 -10 14 0 59 -51 60 -67 0 -6 9 -15 20 -18 11 -3 20 -11 20
-16 0 -5 6 -9 14 -9 7 0 16 -11 18 -25 3 -14 1 -25 -3 -25 -10 0 9 -47 27 -70
7 -8 9 -30 7 -49 -4 -22 -1 -36 8 -42 11 -7 9 -10 -9 -15 -15 -4 -21 -12 -17
-21 4 -11 1 -13 -11 -9 -8 3 -18 6 -20 6 -2 0 -4 9 -4 20 0 11 -7 23 -15 26
-10 4 -13 13 -10 24 4 13 -1 20 -15 25 -11 3 -20 10 -20 15 0 4 -11 11 -25 14
-14 4 -25 13 -25 22 0 8 5 12 10 9 6 -3 10 1 10 9 0 26 -27 18 -34 -11 -5 -17
-3 -29 6 -35 9 -6 6 -7 -9 -3 -14 4 -23 2 -23 -4 0 -6 5 -11 10 -11 6 0 10 -4
10 -9 0 -6 10 -26 22 -47 24 -41 32 -81 17 -89 -5 -4 -9 -31 -9 -61 0 -30 -4
-54 -10 -54 -14 0 -12 -27 3 -33 7 -3 5 -6 -5 -6 -22 -1 -25 -41 -3 -41 21 0
19 -40 -2 -56 -15 -11 -15 -13 -3 -14 8 0 24 -11 34 -25 13 -18 22 -22 27 -14
4 7 14 9 25 4 16 -6 14 -10 -16 -22 -34 -15 -34 -16 -12 -26 12 -5 22 -14 22
-19 0 -5 9 -7 19 -3 11 3 22 1 26 -5 3 -5 -1 -10 -11 -10 -15 0 -15 -2 0 -25
15 -23 15 -26 1 -31 -8 -3 -15 -17 -15 -30 0 -21 2 -23 14 -12 8 7 12 16 10
19 -7 11 29 20 39 10 6 -6 1 -13 -12 -20 -26 -14 -27 -31 -3 -31 25 0 43 -42
35 -82 -6 -30 -5 -32 10 -19 15 12 17 10 17 -15 1 -16 7 -46 14 -66 8 -21 10
-35 5 -33 -4 3 -11 0 -15 -6 -4 -6 10 -26 32 -47 22 -19 32 -32 22 -29 -10 4
-18 -1 -21 -14 -3 -10 -2 -21 2 -24 4 -2 8 -20 9 -40 1 -21 -3 -33 -8 -30 -14
8 -13 -18 1 -32 7 -7 7 -13 0 -17 -5 -4 -15 4 -22 16 -7 13 -34 48 -61 78 -27
30 -46 60 -44 67 3 8 -3 13 -15 13 -14 0 -19 5 -16 13 10 27 -11 42 -63 43
-52 1 -59 -3 -38 -24 9 -9 9 -12 -3 -12 -7 0 -25 12 -38 25 -13 14 -26 24 -28
22 -2 -3 -39 8 -81 24 -84 31 -107 36 -80 15 21 -16 14 -26 -13 -19 -10 3 -19
14 -19 24 0 15 -5 17 -32 12 -28 -6 -31 -4 -26 15 8 28 -13 29 -36 3 -14 -15
-23 -18 -39 -11 -12 5 -53 16 -92 25 -38 9 -75 23 -81 31 -9 11 -14 11 -30 -2
-14 -11 -15 -17 -6 -20 19 -9 14 -24 -7 -24 -25 0 -38 20 -20 31 11 7 10 9 -3
9 -10 0 -18 -4 -18 -9 0 -11 -82 -11 -96 0 -6 5 -41 11 -77 14 -52 3 -66 1
-71 -11 -4 -11 -13 -13 -27 -9 -14 5 -19 3 -15 -3 9 -16 -22 -22 -81 -17 -40
3 -53 1 -53 -9 0 -21 -29 -40 -66 -43 -23 -1 -34 3 -34 11 0 18 -31 29 -44 16
-5 -5 -17 -10 -25 -10 -12 1 -11 3 4 12 19 11 19 11 0 18 -11 4 -34 2 -52 -6
-35 -14 -103 -10 -114 7 -4 7 -8 6 -12 -3 -4 -11 -22 -14 -63 -14 -46 1 -58
-2 -62 -16 -2 -10 -12 -18 -21 -18 -9 0 -22 -5 -29 -12 -9 -9 -12 -9 -12 1 0
8 -6 11 -15 7 -9 -3 -18 1 -22 10 -5 13 -7 13 -14 2 -5 -7 -9 -8 -9 -2 0 6
-13 11 -30 11 -16 0 -30 -3 -30 -7 0 -3 -15 -7 -32 -8 -18 -1 -47 -7 -65 -13
-22 -7 -44 -7 -70 0 -28 8 -39 7 -45 -2 -6 -9 -10 -9 -16 0 -5 8 -21 9 -52 3
-25 -5 -52 -4 -62 1 -27 15 -35 11 -49 -23 -7 -17 -15 -26 -17 -20 -5 15 -32
16 -32 2 0 -5 5 -10 12 -10 8 0 8 -3 2 -9 -10 -10 -221 -31 -241 -24 -6 3 -9
11 -6 19 3 8 0 14 -6 14 -6 0 -11 -9 -11 -20 0 -11 -4 -20 -10 -20 -5 0 -10 4
-10 8 0 4 -16 8 -35 8 -19 0 -35 -4 -35 -9 0 -5 -7 -4 -15 3 -8 7 -15 19 -15
26 0 17 -5 17 -30 4 -37 -20 -91 -20 -112 0 -11 10 -17 23 -14 28 3 6 -2 8
-13 5 -10 -3 -22 0 -25 6 -11 18 -26 13 -26 -9 0 -23 -10 -26 -28 -8 -10 10
-14 10 -21 0 -5 -9 -17 -7 -49 8 -47 23 -63 25 -59 9 3 -15 -46 -29 -63 -19
-19 12 6 23 33 15 17 -6 19 -5 10 5 -8 8 -24 10 -55 4 -23 -4 -46 -7 -50 -6
-5 1 -8 -4 -8 -12 0 -7 -8 -16 -19 -19 -15 -3 -18 0 -14 17 4 19 3 20 -10 4
-17 -21 -77 -35 -142 -32 -27 1 -56 -3 -62 -8 -7 -6 -13 -7 -13 -3 0 4 -6 2
-13 -4 -9 -7 -24 -8 -48 -1 -45 13 -46 13 -52 -9 -4 -16 -11 -19 -48 -14 -24
2 -58 9 -76 14 -22 7 -39 7 -54 -1 -11 -7 -30 -10 -40 -7 -14 4 -19 0 -19 -14
0 -15 -7 -18 -44 -17 -38 0 -44 3 -41 19 3 12 -2 19 -12 19 -9 0 -13 -6 -9
-15 6 -18 5 -18 -28 -5 -21 8 -28 6 -38 -10 -9 -14 -19 -17 -40 -13 -21 4 -28
2 -28 -11 0 -19 -21 -21 -38 -4 -9 9 -15 9 -24 0 -8 -8 -17 -8 -30 -1 -10 6
-29 7 -41 3 -12 -4 -30 -7 -39 -5 -10 1 -18 -2 -18 -6 0 -5 -21 -15 -47 -22
-58 -17 -88 -35 -129 -79 -21 -21 -37 -30 -48 -26 -17 7 -22 -11 -6 -21 15 -9
12 -25 -5 -25 -8 0 -17 -11 -21 -24 -3 -14 -14 -32 -25 -42 -10 -9 -16 -21
-13 -25 3 -5 1 -9 -4 -9 -5 0 -15 -13 -22 -30 -7 -16 -18 -30 -24 -30 -6 0 -5
-4 3 -9 7 -5 10 -14 6 -20 -4 -8 -11 -9 -19 -2 -8 7 -15 2 -23 -15 -7 -15 -7
-26 -2 -30 6 -3 5 -11 -2 -20 -17 -20 -25 -209 -9 -219 7 -4 16 -2 21 6 6 11
9 8 9 -8 0 -12 5 -25 11 -29 6 -4 9 -19 5 -36 -5 -26 -3 -30 13 -25 29 7 34
-30 10 -63 -17 -22 -19 -34 -13 -66 5 -21 7 -43 5 -49 -1 -5 -4 -41 -6 -80 -3
-58 -1 -67 9 -52 16 21 26 22 26 2 0 -8 4 -15 10 -15 6 0 6 -10 -1 -27 -18
-47 -17 -104 2 -116 9 -7 17 -15 18 -19 1 -10 3 -11 25 -2 11 4 21 2 27 -7 5
-9 9 -10 9 -2 0 16 60 -14 67 -35 6 -13 8 -12 13 4 6 15 0 22 -28 35 -23 11
-30 19 -22 24 7 4 16 2 22 -6 7 -11 11 -11 15 -1 6 14 33 16 33 2 0 -5 6 -10
14 -10 28 0 23 -26 -11 -56 -19 -18 -30 -35 -25 -38 6 -3 8 -15 5 -26 -4 -14
0 -20 11 -20 9 0 16 -8 16 -19 0 -30 19 -36 41 -13 18 20 18 22 1 31 -13 8
-14 12 -5 22 10 10 18 8 40 -12 16 -13 32 -30 36 -36 4 -7 17 -13 28 -13 11 0
29 -5 40 -11 11 -6 48 -14 82 -18 36 -4 61 -11 60 -18 -4 -18 77 -23 102 -7
21 13 23 13 28 -6 3 -11 1 -18 -4 -14 -5 3 -9 0 -9 -5 0 -14 27 -14 35 -1 4 6
16 8 27 4 11 -3 32 -7 47 -9 14 -1 49 -8 76 -14 59 -14 204 -21 211 -10 2 4
25 2 50 -6 51 -15 94 -6 94 20 0 8 6 15 13 15 7 0 30 9 51 20 22 10 43 17 48
14 4 -3 11 2 14 10 3 9 17 16 30 16 17 0 22 4 18 15 -4 11 0 15 16 15 22 0 92
37 98 52 2 4 9 8 15 8 15 0 50 30 203 175 198 186 248 240 278 301 16 33 47
86 68 120 21 34 38 65 38 70 0 5 12 20 25 33 14 13 25 30 25 39 0 8 3 13 6 9
3 -3 14 2 24 11 56 52 81 72 91 72 6 0 17 6 25 14 10 11 11 17 2 22 -24 15 28
22 87 12 61 -11 141 -55 152 -85 3 -8 16 -26 29 -40 21 -23 56 -73 157 -229
44 -67 137 -168 223 -243 22 -19 89 -82 149 -140 114 -110 176 -161 194 -161
6 0 11 -4 11 -10 0 -5 8 -10 18 -10 9 0 31 -7 47 -16 48 -25 106 -44 170 -56
98 -18 376 -11 397 10 7 7 20 12 30 12 10 0 18 5 18 11 0 6 5 7 13 2 21 -13
67 -12 67 3 0 11 21 12 105 9 80 -4 105 -2 105 7 0 10 2 10 9 0 5 -8 25 -14
47 -14 22 1 82 1 134 1 53 0 107 4 122 10 17 6 38 7 59 1 24 -7 41 -5 73 9 30
14 43 16 48 8 5 -7 8 -2 9 13 l1 25 10 -27 c8 -23 13 -26 27 -18 21 11 32 4
24 -16 -3 -7 4 -28 15 -46 10 -18 25 -55 31 -83 7 -27 19 -65 27 -83 9 -18 13
-40 10 -48 -3 -9 1 -22 9 -31 11 -10 14 -25 9 -48 -5 -27 -2 -34 13 -38 16 -4
16 -5 1 -6 -17 -1 -23 -24 -21 -78 1 -7 -3 -11 -7 -8 -4 3 -10 -2 -14 -10 -6
-18 10 -30 18 -13 2 7 3 -8 0 -34 -5 -52 5 -61 29 -25 15 22 15 22 10 -8 -3
-16 -13 -36 -22 -43 -14 -11 -14 -14 -1 -22 8 -5 10 -10 4 -10 -18 0 -47 38
-41 55 7 16 -1 19 -43 15 -31 -2 -38 -9 -22 -19 7 -4 10 -15 6 -24 -8 -21 -24
-22 -24 -2 0 8 -4 15 -10 15 -5 0 -10 7 -10 15 0 8 -9 15 -20 15 -11 0 -20 6
-20 13 0 8 -4 7 -10 -3 -9 -13 -11 -13 -19 -1 -8 12 -12 12 -25 -2 -18 -17
-22 -47 -6 -47 5 0 13 7 18 16 8 14 10 13 15 -5 3 -12 0 -21 -6 -21 -7 0 -4
-5 6 -11 19 -11 23 -44 6 -54 -6 -4 -8 -13 -5 -21 3 -8 0 -11 -10 -7 -7 3 -14
9 -14 14 0 5 -7 9 -15 9 -8 0 -15 -9 -15 -21 0 -11 5 -17 10 -14 6 3 10 -2 10
-11 0 -10 -3 -15 -6 -11 -10 10 -36 -22 -28 -34 4 -8 0 -9 -15 -4 -21 6 -26
-3 -22 -47 3 -23 -17 -23 -41 -1 -10 9 -18 11 -18 5 0 -6 -7 -9 -15 -6 -22 9
-38 -5 -24 -22 8 -10 8 -14 0 -14 -6 0 -11 -13 -11 -30 0 -21 -5 -30 -16 -30
-12 0 -15 -7 -12 -25 3 -14 1 -28 -3 -31 -5 -3 -9 0 -9 5 0 6 -4 11 -9 11 -6
0 -3 -12 5 -27 13 -26 12 -28 -6 -31 -20 -3 -25 -17 -21 -61 2 -22 0 -23 -14
-11 -13 11 -18 11 -25 1 -4 -7 -5 -21 -3 -31 4 -14 -2 -17 -26 -16 -28 1 -36
7 -32 29 2 13 -17 7 -23 -8 -3 -8 -12 -15 -21 -15 -8 0 -14 -3 -14 -7 1 -5 1
-14 0 -21 -2 -19 -56 -11 -56 8 0 10 8 14 23 13 14 -2 22 3 22 12 0 8 -4 15
-10 15 -5 0 -10 9 -10 19 0 11 -5 23 -12 27 -7 5 -9 2 -6 -7 7 -19 -17 -55
-27 -40 -11 19 -95 11 -95 -8 0 -11 47 -31 54 -24 3 3 1 12 -5 20 -14 17 -2
17 15 0 19 -19 26 -67 10 -67 -8 0 -14 5 -14 10 0 6 -8 10 -18 10 -10 0 -24 6
-31 13 -11 10 -13 9 -8 -5 3 -10 1 -20 -5 -24 -7 -4 -8 -3 -4 4 4 7 1 12 -8
12 -9 0 -16 -7 -16 -16 0 -12 7 -14 30 -9 37 8 39 -6 3 -22 -21 -10 -28 -10
-34 -1 -5 7 -11 9 -16 5 -4 -5 -1 -12 7 -17 22 -13 5 -23 -19 -11 -12 7 -22 7
-26 1 -12 -19 -37 2 -31 26 5 19 3 22 -10 17 -9 -3 -20 0 -25 8 -7 11 -9 10
-9 -5 0 -16 -3 -17 -12 -8 -14 14 -68 16 -68 3 0 -6 4 -12 9 -15 5 -4 5 -20
-1 -41 -9 -29 -14 -33 -30 -24 -13 7 -18 6 -18 -3 1 -24 27 -49 44 -42 13 5
16 0 16 -24 0 -17 5 -34 10 -37 8 -5 7 -11 -1 -21 -9 -11 -8 -14 4 -14 17 0
29 -22 19 -36 -4 -5 -16 -9 -26 -9 -23 0 -31 -44 -9 -52 7 -3 13 -13 13 -23 0
-11 10 -20 25 -24 23 -6 24 -9 13 -29 -7 -12 -13 -31 -14 -42 -3 -67 -5 -75
-19 -75 -9 0 -19 -8 -22 -17 -6 -15 -7 -15 -13 1 -6 17 -7 17 -22 2 -24 -24
-41 -20 -75 17 -51 54 -63 61 -63 38 0 -11 6 -21 13 -24 7 -2 8 -8 3 -13 -5
-5 -15 1 -23 13 -20 29 -47 31 -40 3 5 -21 -7 -27 -18 -9 -5 7 -13 4 -26 -7
-17 -15 -19 -15 -25 0 -3 9 -13 16 -21 16 -8 0 -17 8 -20 18 -3 14 -12 17 -34
14 -16 -2 -29 0 -29 5 0 5 -21 10 -47 12 -27 1 -49 6 -51 12 -2 5 -9 9 -16 9
-14 0 -9 72 6 81 7 4 6 14 -1 26 -5 11 -8 23 -5 26 4 3 8 36 11 74 5 74 -27
241 -65 342 l-20 54 33 61 c36 66 55 149 36 160 -6 4 -11 20 -11 37 0 28 -13
39 -25 20 -3 -6 -27 -7 -53 -4 -26 3 -59 5 -74 4 -15 0 -29 7 -32 15 -3 8 -10
12 -16 9 -5 -3 -10 3 -10 14 0 20 -3 22 -77 37 -13 2 -23 11 -23 19 0 15 -4
16 -80 19 -34 1 -45 -3 -45 -14 0 -18 -33 -45 -43 -35 -3 3 0 10 8 15 11 7 11
11 1 24 -12 14 -15 14 -39 -2 -14 -9 -36 -15 -48 -14 -23 3 -85 -35 -145 -89
-20 -18 -37 -25 -51 -21 -14 3 -19 1 -14 -6 5 -8 2 -10 -8 -6 -10 4 -16 1 -16
-8 0 -10 -11 -15 -31 -16 -17 0 -36 -6 -44 -12 -10 -8 -15 -8 -20 0 -8 13
-125 11 -125 -3 0 -6 -5 -6 -12 0 -7 6 -26 14 -43 18 -16 4 -24 10 -17 12 6 3
9 9 6 14 -3 6 -12 5 -21 -2 -12 -10 -17 -10 -25 2 -7 11 -11 11 -15 2 -2 -7
-15 -13 -28 -13 -13 0 -26 -4 -29 -9 -8 -12 -66 -20 -66 -9 0 4 8 8 18 8 9 0
-3 12 -28 27 -25 14 -49 32 -53 40 -14 23 -66 45 -90 37 -12 -4 -47 -7 -79 -6
-44 0 -60 -4 -74 -19 -11 -12 -24 -17 -36 -13 -14 4 -18 0 -18 -16 0 -17 -4
-20 -19 -15 -21 6 -42 -20 -34 -41 5 -15 -27 -27 -41 -15 -14 12 -41 -3 -32
-17 3 -6 2 -13 -3 -16 -5 -4 -12 -2 -16 4 -11 17 -36 11 -33 -7 2 -15 -4 -18
-34 -16 -28 2 -38 -2 -38 -12 0 -8 -7 -15 -15 -15 -10 0 -15 -10 -15 -31 0
-17 4 -28 10 -24 6 3 7 -1 4 -10 -7 -17 18 -76 40 -94 12 -10 12 -18 0 -57 -8
-26 -11 -50 -8 -55 3 -5 -2 -19 -10 -31 -22 -31 -21 -70 2 -66 12 2 18 -5 20
-22 3 -20 1 -23 -9 -12 -7 6 -17 12 -21 12 -11 0 -6 -53 6 -62 6 -4 5 -12 -2
-20 -6 -8 -9 -24 -5 -36 3 -14 1 -22 -8 -22 -9 0 -10 -3 -2 -11 6 -6 9 -28 6
-49 -3 -23 1 -50 11 -72 9 -18 20 -54 24 -78 4 -25 11 -44 15 -42 12 5 72 -81
69 -98 -2 -11 0 -12 5 -3 12 18 53 4 53 -17 0 -13 6 -17 18 -13 13 3 22 -4 30
-22 16 -34 8 -45 -29 -45 -22 0 -29 -5 -29 -20 0 -25 -27 -16 -36 13 -6 19 -8
19 -19 4 -15 -21 -35 -22 -35 -2 0 8 -4 15 -10 15 -5 0 -7 -7 -4 -15 5 -12 -4
-15 -47 -15 -30 0 -64 -3 -76 -6 -18 -5 -25 -1 -32 17 l-10 24 0 -22 c-1 -13
-7 -23 -16 -23 -9 0 -12 6 -8 16 4 12 2 15 -8 12 -8 -2 -18 -19 -24 -36 -5
-19 -16 -32 -25 -31 -10 0 -11 2 -2 6 6 2 12 11 12 19 0 10 -7 13 -24 8 -21
-5 -23 -3 -19 20 4 19 1 26 -9 26 -11 0 -14 -7 -10 -25 5 -27 -8 -33 -30 -13
-8 7 -24 19 -37 26 -20 12 -25 12 -32 0 -23 -36 -35 -48 -51 -48 -9 0 -20 -4
-23 -10 -3 -6 -1 -10 4 -10 7 0 7 -7 -1 -20 -7 -11 -19 -18 -25 -15 -7 2 -13
-2 -13 -9 0 -9 7 -12 20 -9 20 5 28 -11 10 -22 -15 -9 -51 14 -48 32 2 9 -3
18 -11 21 -10 3 -12 -4 -9 -32 4 -39 -6 -49 -15 -15 -4 14 -10 18 -18 13 -7
-4 -23 -8 -36 -9 -31 -1 -30 29 2 43 14 6 25 16 25 22 0 18 -17 10 -51 -24
-27 -27 -40 -33 -61 -29 -24 4 -26 8 -17 30 12 32 12 33 -6 27 -10 -4 -13 -13
-10 -25 4 -13 1 -19 -9 -19 -9 0 -16 8 -16 19 0 28 -20 37 -27 12 -6 -22 -18
-27 -28 -11 -3 6 -16 10 -28 10 -15 0 -18 3 -9 8 7 5 10 15 7 24 -3 8 1 21 10
28 17 14 20 40 5 40 -5 0 -14 -9 -20 -20 -8 -15 -17 -19 -32 -14 -17 5 -20 3
-14 -11 5 -15 2 -16 -21 -11 -20 5 -24 4 -13 -3 8 -6 11 -13 7 -17 -4 -4 -13
-2 -19 4 -9 9 -5 19 19 44 35 38 65 96 57 110 -4 7 -9 7 -13 0 -11 -18 -48
-24 -54 -8 -5 13 30 28 73 30 8 1 16 11 18 24 4 26 -5 28 -30 5 -10 -9 -21
-13 -25 -10 -3 4 10 21 31 39 29 25 36 37 31 55 -6 25 12 32 33 11 9 -9 12 -7
12 10 0 12 5 22 10 22 6 0 10 -9 10 -21 0 -11 5 -17 10 -14 6 3 10 15 10 26 0
17 -7 19 -60 18 -37 -1 -60 -6 -60 -13 0 -6 -4 -5 -9 3 -11 17 -41 7 -41 -14
0 -8 -5 -15 -10 -15 -7 0 -7 6 0 20 8 16 8 20 -4 20 -8 0 -18 -9 -21 -20 -8
-25 -17 -25 -40 0 -17 19 -17 20 1 21 11 0 13 3 7 6 -20 7 -15 23 12 45 14 11
22 24 19 30 -3 5 -15 0 -26 -12 -15 -16 -27 -20 -47 -15 -19 4 -32 1 -41 -10
-16 -20 -5 -32 14 -15 9 6 21 10 28 8 7 -3 0 -12 -17 -23 -17 -10 -41 -28 -55
-39 -14 -11 -19 -14 -12 -6 18 20 16 54 -3 46 -51 -21 -51 -21 -36 -3 7 9 17
15 21 12 9 -6 23 25 15 33 -3 3 -5 0 -5 -6 0 -7 -7 -12 -15 -12 -17 0 -21 16
-5 22 6 2 6 8 0 18 -8 12 -11 11 -16 -7 -4 -13 -9 -23 -13 -23 -15 1 -50 26
-48 35 1 6 -9 12 -23 13 -14 2 -31 9 -38 14 -9 8 -11 7 -6 -6 5 -13 -1 -16
-31 -16 -21 0 -34 -4 -30 -10 13 -22 -25 -8 -43 15 -11 14 -27 25 -36 25 -25
0 -19 30 7 31 15 1 17 3 6 6 -23 6 -12 43 12 43 11 0 19 5 19 11 0 7 -11 8
-30 4 -24 -5 -30 -3 -30 10 0 15 -7 17 -42 12 -35 -5 -38 -4 -18 4 13 5 33 9
45 7 28 -3 45 10 38 28 -3 9 0 20 8 24 7 5 10 12 6 16 -3 4 -13 2 -20 -4 -8
-7 -17 -9 -20 -5 -4 3 -7 -3 -7 -15 0 -13 -6 -22 -15 -22 -8 0 -15 5 -15 10 0
7 -15 9 -40 5 -40 -6 -41 -6 -34 21 6 24 5 25 -14 15 -32 -17 -33 -15 -28 45
6 68 1 83 -25 77 -22 -6 -26 -43 -4 -43 17 0 20 -41 5 -70 -7 -13 -7 -21 0
-25 5 -3 10 -14 10 -23 -1 -16 -2 -16 -14 0 -12 17 -14 17 -28 0 -23 -27 -30
-52 -13 -52 15 0 16 -25 2 -47 -5 -8 -4 -13 2 -13 6 0 11 -4 11 -10 0 -5 -7
-10 -15 -10 -8 0 -15 7 -15 15 0 8 -7 15 -16 15 -10 0 -13 -6 -9 -19 3 -10 0
-31 -7 -47 -10 -22 -10 -28 0 -32 10 -3 10 -7 1 -18 -6 -7 -9 -21 -5 -29 7
-20 -8 -19 -29 2 -18 17 -65 27 -65 14 0 -20 113 -86 137 -82 10 2 32 -93 33
-139 0 -49 47 -279 77 -380 31 -106 48 -151 79 -215 13 -28 24 -55 24 -61 0
-36 184 -349 247 -419 32 -37 63 -84 63 -98 0 -7 -18 -41 -40 -75 -22 -33 -40
-64 -40 -67 0 -3 -26 -45 -59 -93 -162 -242 -237 -370 -362 -617 -74 -148
-144 -295 -154 -325 -10 -30 -27 -74 -38 -98 -10 -24 -17 -54 -14 -67 3 -16 0
-25 -8 -25 -7 0 -18 -13 -24 -30 -5 -17 -14 -30 -19 -30 -6 0 -13 -7 -16 -16
-5 -12 -2 -15 11 -10 13 5 12 1 -4 -11 -20 -16 -21 -22 -12 -62 12 -55 0 -71
-34 -45 -13 11 -23 24 -22 29 8 36 30 102 38 113 6 8 5 12 -4 12 -26 0 -177
-39 -250 -65 -40 -14 -83 -25 -95 -25 -25 0 -98 -22 -149 -45 -16 -7 -50 -20
-75 -28 -25 -8 -58 -22 -75 -31 -16 -9 -33 -16 -38 -16 -21 0 -113 -77 -212
-176 -65 -66 -134 -124 -169 -144 -52 -29 -62 -32 -90 -22 -77 27 -225 -24
-339 -117 -11 -9 -34 -14 -57 -12 -48 3 -325 -16 -435 -30 -44 -5 -102 -17
-130 -25 -154 -46 -224 -68 -260 -84 -22 -10 -62 -26 -90 -35 -63 -21 -266
-120 -292 -143 -20 -18 -65 -43 -170 -97 -59 -30 -232 -153 -312 -221 -20 -17
-49 -39 -66 -48 -16 -9 -48 -30 -70 -46 -22 -16 -57 -35 -78 -41 l-37 -12 0
-529 0 -528 3808 2 c3611 3 3809 4 3826 20 10 10 29 21 44 24 15 4 32 11 38
15 17 14 87 22 79 10 -4 -7 4 -11 22 -11 24 -1 25 -2 10 -11 -9 -5 -21 -8 -26
-5 -5 3 -14 -1 -21 -9 -7 -8 -16 -12 -22 -9 -5 3 -14 1 -21 -4 -7 -6 -25 -12
-42 -15 -16 -2 17 -5 74 -6 86 -1 108 2 125 16 20 17 20 17 7 1 -12 -16 -11
-18 12 -18 13 0 30 7 37 15 7 8 18 15 25 15 6 0 20 9 30 20 39 43 55 12 17
-32 -14 -17 -10 -18 75 -18 77 0 95 3 123 22 19 13 38 37 43 53 6 17 13 32 17
35 5 3 10 15 11 28 2 12 7 21 11 20 15 -6 37 41 51 107 10 54 15 64 20 45 8
-32 15 -24 21 30 3 24 10 46 15 48 6 2 20 11 32 21 16 12 19 23 14 44 -4 15
-10 25 -14 22 -9 -5 2 86 12 102 4 6 2 13 -5 15 -7 3 -8 9 -2 19 5 8 9 23 10
34 1 11 11 60 23 108 21 85 21 92 6 171 -8 45 -15 107 -15 137 l1 54 18 -51
c27 -76 42 -226 30 -304 -5 -36 -12 -99 -14 -140 -7 -110 -15 -160 -25 -160
-5 0 -9 -12 -9 -28 0 -44 -6 -61 -27 -78 -18 -15 -18 -15 0 -10 14 5 17 3 11
-11 -4 -10 -12 -43 -17 -73 -5 -30 -13 -57 -18 -60 -4 -3 -11 -27 -15 -55 -4
-27 -15 -63 -24 -80 -9 -16 -20 -38 -24 -47 -6 -17 104 -18 2218 -18 l2225 0
0 370 c0 289 -3 370 -12 370 -7 0 -51 35 -98 77 -82 73 -193 153 -213 153 -5
0 -22 9 -37 20 -16 11 -154 83 -307 159 -237 119 -289 149 -353 204 -64 56
-181 125 -265 157 -11 5 -42 18 -68 29 -26 12 -76 28 -110 36 -93 22 -164 51
-204 82 -85 67 -154 106 -273 153 -30 12 -68 28 -85 35 -35 16 -198 84 -270
113 -52 21 -154 45 -285 67 -126 21 -230 54 -335 107 -55 27 -115 56 -135 63
-130 49 -176 64 -187 60 -7 -2 -15 0 -18 5 -4 6 -17 10 -31 10 -13 0 -32 4
-42 9 -15 8 -32 13 -118 36 -11 3 -29 13 -40 23 -32 30 -132 92 -146 92 -8 0
-18 4 -23 9 -16 14 -124 51 -225 77 -83 21 -208 75 -249 107 -7 6 -24 34 -36
62 -90 198 -154 348 -169 396 -27 90 -192 374 -273 473 -13 15 -30 43 -37 61
-8 18 -19 36 -25 39 -28 17 6 83 97 186 17 21 32 40 32 43 0 3 15 27 33 52
139 197 201 294 241 379 103 218 150 348 195 541 21 89 54 307 66 436 l6 67
40 -10 c45 -12 121 8 171 45 53 39 110 126 116 175 3 32 2 43 -7 38 -8 -5 -9
0 -3 16 4 13 7 39 7 58 -4 91 -4 90 -27 90 -13 0 -18 -3 -12 -8 39 -26 36 -74
-6 -122 -21 -23 -22 -24 -16 -3 4 12 2 24 -4 28 -5 3 -10 1 -10 -6 0 -8 -7 -5
-18 6 -11 12 -16 30 -14 47 4 28 21 39 23 16 0 -7 4 -4 8 7 5 11 4 32 -1 47
-8 22 -6 31 12 50 l22 23 29 -35 c16 -19 29 -39 29 -45 1 -5 8 8 16 30 8 22
17 76 19 119 4 79 -1 109 -15 86 -4 -6 -22 -13 -41 -16 -19 -3 -40 -7 -46 -9
-18 -6 -16 36 2 71 8 16 15 49 15 74 0 32 8 56 26 83 14 21 28 55 31 75 3 20
10 43 16 49 5 7 6 25 3 40 -6 27 -6 27 9 8 9 -12 14 -29 10 -42 -3 -13 -1 -23
4 -23 11 0 17 15 30 80 5 25 14 63 20 85 15 59 13 317 -3 410 -8 44 -17 117
-21 163 -4 45 -11 84 -15 87 -4 2 -22 -9 -41 -25 -19 -16 -46 -29 -61 -30 -16
0 -28 2 -28 3 0 5 28 66 41 89 15 29 11 38 -26 54 -72 30 -149 9 -203 -55 -11
-14 -14 -14 -22 -1 -6 8 -9 22 -9 30 1 8 0 17 -1 20 -1 3 -3 14 -4 25 -2 11
-6 32 -10 46 -6 21 -4 27 12 31 20 6 39 68 27 89 -4 5 5 25 20 44 20 27 22 35
11 35 -23 0 -20 13 10 39 21 19 23 25 13 38 -11 13 -10 18 9 33 12 10 22 25
22 34 0 8 4 18 10 21 14 8 8 85 -7 85 -6 0 -14 4 -18 9 -7 12 24 104 39 114 8
5 8 9 -1 15 -33 21 -18 164 24 229 8 12 13 37 12 55 -2 18 0 56 5 83 7 40 10
46 17 30 5 -12 6 10 4 55 -5 85 9 204 30 253 23 57 29 178 11 239 -9 30 -16
77 -17 104 -2 35 -9 57 -26 77 -19 24 -22 37 -18 75 17 168 18 205 7 198 -7
-4 -12 -3 -12 3 0 5 5 13 11 16 6 4 7 14 3 24 -3 9 -10 57 -14 107 -8 94 -34
185 -53 181 -6 -1 -17 19 -26 45 -17 50 -31 63 -31 28 0 -21 -7 -25 -28 -12
-11 8 -14 24 -21 105 0 9 -6 17 -12 17 -30 0 -56 70 -26 70 7 1 5 6 -5 14 -10
7 -18 24 -18 37 0 30 -30 109 -41 109 -5 0 -9 -9 -9 -20 0 -27 -16 -25 -25 3
-4 13 -8 17 -12 10 -11 -28 -23 -10 -23 35 -1 48 -12 114 -25 145 -5 12 -3 17
8 17 23 0 116 192 109 226 -4 23 -7 19 -23 -28 -11 -29 -28 -65 -39 -80 -11
-15 -20 -39 -20 -53 0 -14 -5 -25 -11 -25 -6 0 -8 8 -5 18 10 34 27 144 23
148 -2 3 -10 -23 -17 -56 -7 -33 -16 -60 -20 -60 -5 0 -11 22 -15 49 -5 40 -2
57 19 101 21 43 26 69 26 130 0 42 4 80 8 85 5 6 3 21 -4 35 -8 14 -14 19 -14
11 0 -11 -3 -11 -15 -1 -11 9 -14 22 -10 42 8 33 -7 37 -29 7 -10 -15 -21 -20
-35 -16 -12 3 -21 1 -21 -4 0 -5 12 -11 28 -14 62 -13 77 -27 80 -80 4 -58 -5
-98 -18 -90 -6 3 -10 1 -10 -4 0 -6 5 -11 10 -11 13 0 13 -23 -2 -55 -20 -45
-26 -27 -24 78 2 91 1 99 -10 72 -7 -16 -13 -56 -14 -87 0 -31 -5 -60 -11 -63
-7 -5 -3 -14 11 -27 25 -23 21 -54 -10 -99 -25 -34 -76 -57 -93 -40 -14 14 8
32 30 24 7 -3 13 2 13 11 0 13 -4 15 -19 6 -11 -5 -30 -10 -42 -10 -20 0 -21
4 -17 45 3 25 2 45 -2 45 -5 0 -20 20 -34 44 -14 24 -33 46 -41 50 -9 3 -13
10 -10 16 4 6 11 8 16 5 5 -4 9 2 9 13 0 10 13 39 30 63 16 24 30 53 30 65 0
29 23 56 41 49 12 -4 14 -18 11 -65 -2 -33 0 -60 4 -60 5 0 11 26 12 57 2 32
8 61 14 64 5 3 1 9 -10 11 -14 4 -22 18 -27 47 -4 22 -10 43 -15 46 -5 3 -11
23 -15 44 -8 51 -30 72 -39 38 -5 -20 -10 -23 -33 -19 -16 2 -25 1 -21 -3 4
-5 3 -14 -4 -22 -9 -11 -7 -12 14 -4 49 18 63 -16 53 -132 -6 -64 -12 -85 -30
-103 -12 -12 -25 -34 -29 -48 -3 -14 -13 -26 -20 -26 -8 0 -17 -8 -21 -17 -6
-16 -8 -15 -20 7 -12 23 -11 26 16 43 29 19 38 37 19 37 -5 0 -10 -4 -10 -10
0 -17 -19 -11 -30 11 -9 16 -8 25 6 40 9 10 14 22 10 27 -4 4 -14 -1 -21 -11
-21 -30 -28 -1 -9 40 10 21 19 41 21 46 2 4 -1 7 -7 7 -13 0 -51 -61 -44 -71
2 -5 -4 -24 -15 -44 -13 -25 -22 -32 -27 -24 -4 7 -2 15 4 17 7 2 10 13 6 27
-3 12 -1 26 5 29 6 4 11 13 11 19 -1 7 -9 1 -20 -12 -14 -16 -21 -19 -24 -10
-3 8 -12 34 -20 59 l-15 45 -1 -40 c0 -23 5 -46 12 -53 9 -9 8 -12 -5 -12 -10
0 -23 12 -30 28 -6 15 -17 31 -24 35 -7 4 -13 20 -13 34 0 23 3 25 30 20 25
-5 30 -3 30 12 0 17 31 35 54 32 4 -1 14 3 21 9 10 8 16 7 24 -7 10 -17 10
-17 10 2 0 29 -16 103 -18 83 -1 -21 -2 -21 -35 -8 -28 10 -33 29 -14 48 9 9
16 8 30 -5 18 -16 18 -16 12 0 -3 9 -10 17 -15 17 -17 0 -9 28 9 32 37 9 51
-2 46 -35 -4 -29 -3 -29 6 -9 5 13 14 21 19 17 5 -3 12 -1 16 5 3 6 -1 13 -9
16 -9 3 -16 13 -16 21 0 8 -8 13 -17 12 -35 -3 -42 1 -43 29 -2 79 -12 182
-19 182 -4 0 -5 -16 -3 -36 3 -26 1 -35 -7 -30 -6 4 -11 18 -11 31 0 13 -4 26
-9 29 -13 8 -20 45 -10 52 5 3 13 -5 18 -18 8 -18 9 -15 6 17 -3 22 -7 57 -11
78 -4 25 -3 37 5 37 11 0 15 -12 11 -44 -1 -11 3 -15 9 -12 6 4 11 1 11 -7 0
-16 28 -43 36 -34 6 6 -39 82 -69 114 -11 12 -17 29 -14 37 4 10 -1 20 -13 26
-11 6 -20 19 -20 30 0 10 -5 22 -11 26 -8 4 -7 9 2 15 17 11 2 39 -29 55 -12
6 -31 23 -42 37 -26 33 -36 34 -43 5 -6 -20 -7 -20 -32 -4 -20 13 -30 15 -40
6 -14 -12 -115 -27 -115 -17 0 18 83 57 121 57 36 0 40 2 29 15 -7 8 -10 22
-6 30 7 19 1 19 -27 1 -34 -22 -198 -79 -230 -79 -23 0 -26 -3 -21 -20 4 -13
2 -17 -5 -13 -14 9 -8 123 8 139 7 7 16 3 30 -14 l19 -24 -5 30 c-3 17 -10 36
-15 42 -6 7 -8 20 -4 28 4 11 1 15 -9 13 -8 -2 -25 10 -38 25 -13 16 -37 32
-56 36 -44 8 -53 31 -14 31 50 1 -4 23 -72 29 -56 6 -60 8 -63 34 -2 17 -8 25
-15 21 -8 -5 -8 -3 1 7 16 18 15 29 -3 29 -8 0 -15 -7 -15 -16 0 -12 -7 -15
-25 -12 -21 5 -25 2 -25 -21 0 -42 -14 -54 -54 -49 -23 3 -36 0 -36 -8 0 -6
-10 -14 -22 -18 -34 -9 -38 -8 -38 10 0 9 -6 14 -12 11 -7 -2 -12 -11 -10 -20
2 -11 -2 -15 -11 -11 -8 3 -32 -4 -53 -15 -57 -31 -77 -27 -54 9 6 10 10 11
10 3 0 -7 4 -13 9 -13 5 0 7 18 4 40 -5 35 -3 41 18 49 13 4 30 6 37 4 14 -6
16 6 3 26 -5 8 -11 9 -15 3 -3 -6 -24 -13 -45 -17 -22 -4 -45 -13 -52 -21 -6
-8 -20 -14 -31 -14 -15 0 -18 4 -12 23 8 26 18 34 64 48 l36 11 -10 44 c-12
52 -31 60 -23 9 5 -29 2 -37 -16 -46 -12 -7 -38 -24 -57 -39 -19 -15 -40 -25
-45 -23 -6 2 -12 -11 -13 -29 -2 -22 -13 -42 -33 -60 -35 -32 -51 -37 -24 -8
24 27 14 35 -13 10 -26 -25 -35 -26 -23 -2 4 9 30 61 57 116 27 54 66 119 88
143 53 60 40 64 -21 6z m-116 -136 c4 -5 2 -16 -5 -25 -7 -9 -17 -29 -23 -44
-6 -16 -15 -28 -21 -28 -6 0 -7 -7 -4 -16 4 -10 1 -14 -6 -11 -7 2 -13 14 -12
26 0 14 -5 21 -17 21 -10 0 -21 5 -25 11 -4 7 -21 9 -45 5 -34 -5 -39 -4 -39
13 0 11 -6 21 -12 24 -7 2 -10 8 -6 12 5 5 16 1 26 -8 24 -22 32 -21 32 2 0
11 6 22 13 25 17 8 135 2 144 -7z m-956 -19 c10 -13 18 -29 19 -35 0 -15 20
-18 20 -4 0 6 -4 13 -10 16 -15 9 -12 25 5 25 8 0 15 -4 15 -10 0 -5 8 -10 18
-10 25 0 82 -58 75 -76 -3 -8 0 -21 7 -29 10 -12 9 -15 -4 -15 -9 0 -16 6 -16
14 0 7 -9 16 -20 19 -11 3 -24 17 -30 31 -10 28 -30 35 -30 11 0 -14 -12 -15
-77 -10 -43 3 -93 10 -111 16 -29 9 -35 8 -47 -8 -20 -25 -18 -33 6 -33 18 0
19 -2 9 -15 -18 -21 -50 -19 -50 3 0 10 3 22 7 26 4 4 8 13 9 19 0 7 2 20 2
30 1 11 10 17 26 17 13 0 26 5 28 11 2 6 31 15 63 19 33 4 62 8 63 9 2 0 12
-9 23 -21z m723 -34 c4 -9 4 -19 1 -22 -7 -8 -35 19 -29 29 8 14 21 11 28 -7z
m-1181 -19 c11 0 6 -18 -13 -43 -11 -14 -24 -20 -34 -16 -9 3 -16 1 -16 -5 0
-6 -9 -11 -20 -11 -11 0 -23 -7 -27 -16 -3 -8 -11 -13 -18 -10 -12 4 -45 -27
-45 -44 0 -5 -6 -13 -14 -17 -18 -11 -38 -51 -31 -63 3 -6 1 -10 -4 -10 -14 0
-51 37 -51 50 0 6 9 10 20 10 15 0 20 7 20 25 0 14 4 24 8 23 4 -2 25 13 45
33 23 23 47 37 63 37 14 0 33 7 42 16 16 16 16 17 1 11 -10 -4 -20 -2 -24 4
-3 6 1 11 9 11 9 0 16 6 16 13 0 6 9 1 19 -12 19 -25 36 -16 24 15 -5 13 -3
15 8 8 8 -5 17 -9 22 -9z m1977 5 c0 -5 -4 -10 -10 -10 -5 0 -10 5 -10 10 0 6
5 10 10 10 6 0 10 -4 10 -10z m-668 -37 c43 -42 35 -60 -12 -26 -39 27 -52 53
-28 53 7 0 25 -12 40 -27z m312 5 c-3 -13 -12 -30 -19 -38 -6 -8 -15 -23 -18
-32 -4 -11 -13 -15 -26 -11 -16 4 -21 13 -21 39 0 22 4 32 13 29 6 -3 23 4 37
15 33 26 43 25 34 -2z m-1559 2 c3 -5 -1 -10 -10 -10 -9 0 -13 5 -10 10 3 6 8
10 10 10 2 0 7 -4 10 -10z m1166 0 c10 -6 19 -19 19 -30 0 -13 5 -17 14 -14 8
3 19 -3 25 -15 17 -30 13 -36 -9 -16 -18 16 -20 16 -26 1 -11 -29 -25 -17 -20
18 5 30 3 35 -20 40 -13 4 -22 11 -19 16 8 13 12 12 36 0z m859 -9 c0 -5 -16
-25 -35 -44 -19 -19 -35 -42 -35 -51 0 -9 -4 -16 -10 -16 -11 0 -14 59 -4 84
3 9 15 16 25 16 10 0 19 5 19 10 0 6 9 10 20 10 11 0 20 -4 20 -9z m-1743 -41
c4 -12 7 -12 19 4 7 11 15 18 16 15 21 -33 27 -51 22 -64 -7 -17 -20 -20 -29
-5 -4 6 -11 8 -16 4 -6 -3 -19 4 -30 17 -21 24 -24 39 -9 39 6 0 10 8 11 18 1
17 1 17 16 -28z m93 -1 c0 -6 -4 -7 -10 -4 -5 3 -10 11 -10 16 0 6 5 7 10 4 6
-3 10 -11 10 -16z m1054 -49 c-10 -33 -22 -60 -26 -60 -17 0 -7 78 13 104 31
39 35 24 13 -44z m427 38 c4 -16 3 -28 -2 -28 -5 0 -9 -7 -9 -16 0 -13 -6 -15
-27 -9 -16 3 -32 13 -36 21 -9 16 -53 19 -62 4 -3 -5 -18 -10 -31 -10 -16 0
-24 -5 -21 -12 2 -7 9 -12 15 -11 28 7 60 -17 67 -49 4 -18 12 -39 19 -47 9
-11 8 -13 -4 -8 -8 4 -23 10 -32 13 -10 4 -18 10 -18 14 0 4 -11 6 -25 5 -16
-2 -25 2 -25 11 0 8 -5 14 -10 14 -7 0 -8 13 -5 34 6 32 5 33 -19 29 -24 -5
-25 -8 -20 -45 5 -31 4 -39 -7 -37 -8 1 -27 -3 -42 -9 -38 -16 -40 -15 -53 12
-9 19 -6 28 18 54 15 18 32 32 38 32 5 0 10 5 10 11 0 6 9 9 20 6 11 -3 23 0
28 6 18 29 162 51 162 26 0 -9 6 -8 17 4 24 24 45 18 54 -15z m-1403 16 c26
-7 30 -39 5 -48 -18 -7 -58 28 -48 44 7 12 12 12 43 4z m1636 -39 c5 -17 8
-18 15 -5 8 12 14 11 35 -10 28 -25 34 -50 14 -50 -9 0 -13 -16 -13 -48 0 -26
-3 -55 -7 -64 -6 -15 -10 -16 -37 -2 -26 13 -30 22 -36 72 -4 31 -11 76 -15
99 -4 23 -5 44 -3 47 9 9 42 -18 47 -39z m-1076 7 c6 -18 -15 -14 -22 4 -4 10
-1 14 6 12 6 -2 14 -10 16 -16z m1015 -29 c4 -19 2 -33 -5 -35 -7 -3 -6 -13 4
-33 15 -29 33 -115 24 -115 -14 0 -36 14 -36 22 0 16 -32 37 -55 38 -26 0 -45
18 -45 42 0 11 7 18 20 18 15 0 20 -7 20 -25 0 -14 5 -25 10 -25 6 0 8 20 4
53 -5 44 -3 56 16 80 25 32 35 27 43 -20z m-1253 24 c0 -22 -39 -52 -51 -40
-8 8 -4 17 12 32 26 24 39 27 39 8z m1123 -34 c-3 -18 -9 -33 -14 -33 -10 0
-11 25 -3 58 9 34 23 13 17 -25z m-533 27 c0 -5 -5 -10 -11 -10 -5 0 -7 5 -4
10 3 6 8 10 11 10 2 0 4 -4 4 -10z m-1310 -26 c0 -8 -5 -12 -10 -9 -6 4 -8 11
-5 16 9 14 15 11 15 -7z m107 -6 c-3 -8 -6 -5 -6 6 -1 11 2 17 5 13 3 -3 4
-12 1 -19z m-520 -20 c-3 -8 -6 -5 -6 6 -1 11 2 17 5 13 3 -3 4 -12 1 -19z
m215 0 c-6 -6 -15 -8 -19 -4 -4 4 -1 11 7 16 19 12 27 3 12 -12z m568 -4 c0
-8 -4 -14 -10 -14 -5 0 -10 9 -10 21 0 11 5 17 10 14 6 -3 10 -13 10 -21z
m-314 -19 c-7 -18 -26 -20 -26 -2 0 18 24 41 28 27 2 -6 1 -17 -2 -25z m377
20 c-3 -9 -8 -14 -10 -11 -3 3 -2 9 2 15 9 16 15 13 8 -4z m519 -4 c-3 -12 0
-12 12 -2 16 14 51 7 42 -7 -3 -5 4 -8 16 -8 41 2 30 -22 -14 -29 -28 -5 -43
-4 -46 4 -2 6 -8 11 -14 11 -16 0 -58 37 -51 44 13 13 58 2 55 -13z m-482 -10
c0 -24 -21 -61 -35 -61 -19 0 -19 5 2 41 17 28 33 38 33 20z m-910 -24 c0 -7
-7 -22 -15 -33 -12 -16 -14 -17 -15 -2 0 23 11 48 21 48 5 0 9 -6 9 -13z
m2240 -18 c0 -11 -4 -17 -10 -14 -5 3 -10 13 -10 21 0 8 5 14 10 14 6 0 10 -9
10 -21z m-1263 0 c6 -6 9 -18 6 -27 -5 -11 -1 -14 13 -10 17 4 20 1 16 -23 -4
-29 -22 -41 -22 -15 0 15 -27 29 -40 21 -16 -10 -22 17 -9 41 14 27 20 29 36
13z m704 -72 c-13 -13 -15 31 -3 60 5 14 8 10 10 -16 2 -18 -1 -38 -7 -44z
m-1581 17 c0 -8 -5 -12 -10 -9 -6 4 -8 11 -5 16 9 14 15 11 15 -7z m1516 -9
c-3 -9 0 -15 8 -15 24 0 25 -40 2 -91 -20 -46 -23 -49 -41 -35 -14 10 -17 17
-8 27 17 23 22 69 7 70 -36 4 -54 15 -54 36 0 11 5 13 18 8 24 -11 56 -8 60 5
2 5 6 10 9 10 3 0 3 -7 -1 -15z m158 -36 c13 -26 13 -31 0 -36 -17 -6 -19 -50
-1 -56 9 -3 9 -7 0 -17 -14 -15 -34 -4 -27 15 4 8 -2 15 -16 17 -11 2 -20 8
-20 13 1 6 8 9 15 7 9 -2 13 3 9 12 -3 8 -1 17 5 21 8 4 8 12 1 26 -12 21 -5
43 10 34 5 -3 16 -19 24 -36z m166 30 c0 -6 -7 -17 -15 -25 -16 -16 -19 -7 -9
20 7 18 24 22 24 5z m556 -27 c-31 -4 -41 2 -32 17 5 7 16 6 34 -2 l27 -12
-29 -3z m-646 8 c0 -17 -58 -75 -67 -67 -4 5 -1 14 8 20 9 7 21 22 28 35 12
22 31 30 31 12z m-450 -10 c0 -5 -5 -10 -11 -10 -5 0 -7 5 -4 10 3 6 8 10 11
10 2 0 4 -4 4 -10z m1255 -18 c-2 -2 -11 -5 -20 -6 -9 -1 -20 -8 -24 -15 -9
-14 -43 -3 -38 13 6 17 70 36 79 23 4 -6 5 -13 3 -15z m-2020 -12 c-3 -5 -11
-10 -16 -10 -6 0 -7 5 -4 10 3 6 11 10 16 10 6 0 7 -4 4 -10z m223 -25 c10
-22 10 -25 -5 -23 -10 2 -22 -7 -30 -22 -9 -17 -13 -20 -13 -8 0 9 -9 23 -21
31 -14 11 -17 17 -9 22 7 4 16 1 21 -6 6 -10 9 -8 9 9 0 31 34 29 48 -3z
m-758 0 c0 -8 -2 -15 -4 -15 -2 0 -6 7 -10 15 -3 8 -1 15 4 15 6 0 10 -7 10
-15z m2650 0 c0 -8 -4 -15 -10 -15 -5 0 -10 7 -10 15 0 8 5 15 10 15 6 0 10
-7 10 -15z m230 -15 c0 -5 -9 -6 -20 -3 -11 3 -17 9 -15 14 7 10 35 1 35 -11z
m-2241 -28 c0 -24 -1 -25 -9 -7 -12 28 -12 47 0 40 6 -3 10 -18 9 -33z m561
29 c0 -12 -20 -25 -27 -18 -7 7 6 27 18 27 5 0 9 -4 9 -9z m1540 -7 c0 -10 -7
-14 -22 -12 -32 5 -35 28 -4 28 17 0 26 -5 26 -16z m-1394 -36 c-4 -22 -10
-46 -14 -52 -3 -6 -5 -20 -3 -31 2 -11 0 -17 -4 -13 -9 9 -10 112 -1 127 17
26 28 10 22 -31z m54 33 c0 -6 -4 -13 -10 -16 -5 -3 -10 1 -10 9 0 9 5 16 10
16 6 0 10 -4 10 -9z m610 0 c0 -6 -4 -13 -10 -16 -5 -3 -10 1 -10 9 0 9 5 16
10 16 6 0 10 -4 10 -9z m231 -5 c-19 -23 -74 -42 -79 -28 -2 7 -8 9 -14 6 -6
-4 -9 -1 -6 7 3 8 14 13 26 11 11 -2 23 2 27 8 3 5 18 10 32 10 21 0 23 -3 14
-14z m-652 -32 l-12 -29 -7 25 c-4 18 -2 27 9 31 22 9 23 6 10 -27z m511 23
c0 -8 -9 -22 -20 -32 -19 -17 -19 -17 -7 14 12 32 27 42 27 18z m-235 -79 c-2
-46 -4 -86 -4 -90 -1 -4 -8 -5 -17 -1 -13 5 -15 15 -9 52 4 25 9 59 11 74 4
27 11 47 18 47 2 0 2 -37 1 -82z m728 66 c-3 -9 -13 -12 -24 -9 -11 4 -19 2
-19 -4 0 -6 -9 -11 -20 -11 -13 0 -20 7 -20 18 0 15 8 19 44 20 35 0 43 -3 39
-14z m-1913 -15 c0 -6 -4 -7 -10 -4 -5 3 -10 11 -10 16 0 6 5 7 10 4 6 -3 10
-11 10 -16z m950 5 c0 -17 -22 -14 -28 4 -2 7 3 12 12 12 9 0 16 -7 16 -16z
m1036 -6 c-9 -5 -21 -6 -28 -2 -8 5 -5 10 8 14 25 10 41 0 20 -12z m-1399 -10
c-3 -8 -6 -5 -6 6 -1 11 2 17 5 13 3 -3 4 -12 1 -19z m-207 -8 c-20 -13 -47
-13 -55 0 -4 6 9 10 32 10 28 0 34 -3 23 -10z m391 -33 c-8 -8 -11 -7 -11 4 0
20 13 34 18 19 3 -7 -1 -17 -7 -23z m209 23 c0 -5 -4 -10 -10 -10 -5 0 -10 5
-10 10 0 6 5 10 10 10 6 0 10 -4 10 -10z m254 -30 c12 -71 12 -75 -9 -75 -18
0 -20 5 -16 50 5 75 15 85 25 25z m-1358 3 c-10 -10 -19 5 -10 18 6 11 8 11
12 0 2 -7 1 -15 -2 -18z m2194 0 c0 26 21 30 64 12 21 -9 41 -14 44 -11 9 10
31 -28 32 -56 l0 -27 -27 26 c-26 27 -26 27 -34 6 -8 -22 -8 -22 -66 8 -72 37
-83 47 -63 59 11 7 20 3 32 -13 15 -19 18 -20 18 -4z m-1580 -23 c0 -37 -12
-44 -32 -20 -14 16 -15 20 -1 39 18 27 33 18 33 -19z m-1450 5 c0 -14 -4 -25
-10 -25 -11 0 -14 33 -3 43 11 11 13 8 13 -18z m1265 15 c3 -5 2 -10 -4 -10
-5 0 -13 5 -16 10 -3 6 -2 10 4 10 5 0 13 -4 16 -10z m93 -17 c5 -18 -20 -16
-44 2 -18 15 -18 15 10 13 16 -2 31 -9 34 -15z m232 -27 c0 -15 -3 -17 -12 -8
-21 21 -26 13 -21 -28 4 -24 2 -40 -5 -40 -21 0 -32 83 -12 95 6 4 8 11 5 16
-4 5 5 4 19 -3 16 -7 26 -19 26 -32z m110 -5 c0 -6 -4 -13 -10 -16 -5 -3 -10
1 -10 9 0 9 5 16 10 16 6 0 10 -4 10 -9z m-1380 -37 c0 -8 -4 -12 -10 -9 -5 3
-10 13 -10 21 0 8 5 12 10 9 6 -3 10 -13 10 -21z m-305 7 c3 -5 1 -12 -5 -16
-5 -3 -10 1 -10 9 0 18 6 21 15 7z m-55 -30 c0 -11 -4 -23 -10 -26 -6 -4 -10
5 -10 19 0 14 5 26 10 26 6 0 10 -9 10 -19z m30 9 c0 -5 -2 -10 -4 -10 -3 0
-8 5 -11 10 -3 6 -1 10 4 10 6 0 11 -4 11 -10z m80 -62 c-1 -17 -39 33 -40 51
0 8 9 3 20 -12 11 -14 20 -31 20 -39z m737 56 c-3 -3 -12 -4 -19 -1 -8 3 -5 6
6 6 11 1 17 -2 13 -5z m-917 -28 c0 -2 -3 -11 -6 -20 -5 -12 -10 -13 -26 -5
-17 9 -18 13 -7 20 15 9 39 12 39 5z m137 -92 c-9 -9 -28 6 -21 18 4 6 10 6
17 -1 6 -6 8 -13 4 -17z m423 16 c0 -5 -7 -10 -15 -10 -8 0 -15 5 -15 10 0 6
7 10 15 10 8 0 15 -4 15 -10z m150 -6 c0 -2 -9 -4 -21 -4 -11 0 -18 4 -14 10
5 8 35 3 35 -6z m44 1 c11 -8 30 -15 42 -15 13 0 26 -5 30 -11 5 -8 -1 -10
-19 -7 -15 3 -28 0 -30 -6 -3 -6 -15 -1 -31 13 -39 37 -33 57 8 26z m-849 -14
c3 -5 1 -12 -5 -16 -5 -3 -10 1 -10 9 0 18 6 21 15 7z m175 -41 c0 -5 -4 -10
-10 -10 -5 0 -10 5 -10 10 0 6 5 10 10 10 6 0 10 -4 10 -10z m-158 -32 c-7 -7
-12 -8 -12 -2 0 14 12 26 19 19 2 -3 -1 -11 -7 -17z m-282 -1 c0 -7 -6 -19
-12 -25 -10 -10 -10 -15 1 -21 9 -6 11 -18 8 -32 -8 -32 -34 -66 -42 -57 -10
9 25 148 36 148 5 0 9 -6 9 -13z m390 -7 c0 -5 -2 -10 -4 -10 -3 0 -8 5 -11
10 -3 6 -1 10 4 10 6 0 11 -4 11 -10z m640 0 c0 -5 -4 -10 -9 -10 -6 0 -13 5
-16 10 -3 6 1 10 9 10 9 0 16 -4 16 -10z m-818 -35 c2 -11 -1 -22 -7 -25 -5
-3 -11 11 -13 30 -4 37 15 33 20 -5z m83 5 c3 -5 1 -10 -4 -10 -6 0 -11 5 -11
10 0 6 2 10 4 10 3 0 8 -4 11 -10z m215 -20 c0 -5 -5 -10 -11 -10 -5 0 -7 5
-4 10 3 6 8 10 11 10 2 0 4 -4 4 -10z m-250 -14 c0 -3 -4 -8 -10 -11 -5 -3
-10 -1 -10 4 0 6 5 11 10 11 6 0 10 -2 10 -4z m2577 -33 c-3 -10 -5 -4 -5 12
0 17 2 24 5 18 2 -7 2 -21 0 -30z m-2566 4 c-10 -9 -11 -8 -5 6 3 10 9 15 12
12 3 -3 0 -11 -7 -18z m399 -27 c0 -5 -4 -10 -10 -10 -5 0 -10 5 -10 10 0 6 5
10 10 10 6 0 10 -4 10 -10z m-570 -64 c0 -13 -7 -29 -15 -36 -13 -11 -15 -8
-15 13 0 34 10 58 21 51 5 -3 9 -16 9 -28z m-144 -83 c3 -7 3 -21 -1 -30 -6
-14 -8 -15 -12 -4 -4 11 -10 9 -22 -8 -16 -20 -19 -21 -30 -7 -9 11 -10 16 -2
16 7 0 9 9 5 25 -4 18 -1 32 11 45 19 22 21 21 51 -37z m3748 -8 c5 -15 -18
-45 -35 -45 -19 0 -21 31 -3 45 24 18 31 18 38 0z m-807 -47 c-3 -8 -6 -5 -6
6 -1 11 2 17 5 13 3 -3 4 -12 1 -19z m566 -14 c-4 -10 -9 -12 -15 -6 -12 12
-1 35 12 27 5 -3 6 -13 3 -21z m-3622 -29 c-20 -42 -31 -44 -31 -7 0 33 7 42
30 42 16 0 16 -2 1 -35z m3576 9 c-3 -3 -12 -4 -19 -1 -8 3 -5 6 6 6 11 1 17
-2 13 -5z m557 -50 c10 -25 7 -34 -9 -34 -9 0 -15 9 -15 25 0 28 15 34 24 9z
m-4129 -33 c3 -5 1 -12 -5 -16 -5 -3 -10 1 -10 9 0 18 6 21 15 7z m3495 -10
c0 -14 -18 -23 -31 -15 -8 4 -7 9 2 15 18 11 29 11 29 0z m-1410 -73 c0 -7 -5
-20 -10 -28 -8 -12 -10 -9 -10 13 0 15 5 27 10 27 6 0 10 -6 10 -12z m-150 -8
c0 -5 -4 -10 -9 -10 -6 0 -13 5 -16 10 -3 6 1 10 9 10 9 0 16 -4 16 -10z m285
0 c12 -19 -5 -30 -25 -17 -11 6 -20 15 -20 19 0 12 38 10 45 -2z m35 -51 c0
-11 -27 -12 -34 0 -3 4 -3 11 0 14 8 8 34 -3 34 -14z m1670 -18 c-6 -12 -15
-21 -21 -21 -10 0 -4 15 16 36 15 17 18 9 5 -15z m-1540 -1 c0 -5 -4 -10 -10
-10 -5 0 -10 5 -10 10 0 6 5 10 10 10 6 0 10 -4 10 -10z m-873 -72 c-3 -8 -6
-5 -6 6 -1 11 2 17 5 13 3 -3 4 -12 1 -19z m963 12 c0 -5 -5 -10 -11 -10 -5 0
-7 5 -4 10 3 6 8 10 11 10 2 0 4 -4 4 -10z m180 -14 c0 -11 -19 -15 -25 -6 -3
5 1 10 9 10 9 0 16 -2 16 -4z m-130 -21 c0 -9 -6 -12 -15 -9 -8 4 -15 10 -15
15 0 5 7 9 15 9 8 0 15 -7 15 -15z m-1164 -32 c-10 -10 -19 5 -10 18 6 11 8
11 12 0 2 -7 1 -15 -2 -18z m1251 5 c-3 -8 -6 -5 -6 6 -1 11 2 17 5 13 3 -3 4
-12 1 -19z m1433 -8 c0 -5 -4 -10 -10 -10 -5 0 -10 5 -10 10 0 6 5 10 10 10 6
0 10 -4 10 -10z m-1324 -47 c-11 -11 -17 4 -9 23 7 18 8 18 11 1 2 -10 1 -21
-2 -24z m160 -9 c-3 -9 -6 -20 -6 -25 0 -5 -7 -9 -15 -9 -16 0 -16 17 0 37 14
18 28 16 21 -3z m-1883 -59 c4 -8 2 -17 -2 -20 -5 -2 -11 4 -14 15 -6 23 8 27
16 5z m3264 -41 c1 -21 -1 -47 -4 -56 -6 -22 -23 -24 -23 -2 0 9 -9 18 -20 21
-25 7 -25 9 3 50 28 41 42 37 44 -13z m-3517 -4 c4 0 6 -9 3 -20 -7 -27 -53
-28 -53 -2 0 24 10 34 28 27 7 -3 17 -5 22 -5z m2380 -20 c0 -5 -2 -10 -4 -10
-3 0 -8 5 -11 10 -3 6 -1 10 4 10 6 0 11 -4 11 -10z m840 -64 c0 -3 -4 -8 -10
-11 -5 -3 -10 -1 -10 4 0 6 5 11 10 11 6 0 10 -2 10 -4z m-617 -266 c20 -23
21 -30 7 -30 -14 0 -50 37 -42 44 9 10 17 7 35 -14z m-3398 -20 c3 -5 4 -14 0
-20 -8 -13 -35 -1 -35 16 0 16 26 19 35 4z m4435 -5 c0 -9 -6 -12 -16 -8 -13
5 -13 7 -2 14 17 11 18 11 18 -6z m-5150 -99 c0 -8 -4 -18 -10 -21 -5 -3 -10
-19 -10 -36 0 -16 -5 -29 -11 -29 -10 0 -4 73 8 93 7 12 23 8 23 -7z m4290
-72 c0 -13 -27 -1 -38 16 -12 20 -12 21 13 4 14 -9 25 -18 25 -20z m-4326 -98
c-10 -27 -24 -18 -24 15 0 27 2 29 15 15 8 -8 12 -22 9 -30z m4446 14 c0 -5 7
-10 15 -10 8 0 15 -4 15 -10 0 -5 6 -10 13 -10 17 0 39 -37 27 -45 -6 -3 -10
-1 -10 4 0 6 -7 11 -16 11 -9 0 -18 9 -21 19 -3 11 -13 21 -24 24 -20 5 -27
27 -9 27 6 0 10 -4 10 -10z m99 -32 c-9 -16 -14 -19 -17 -9 -2 7 2 17 9 22 20
13 21 11 8 -13z m256 -88 c14 -15 15 -20 4 -20 -8 0 -20 9 -27 20 -7 11 -8 20
-4 20 5 0 17 -9 27 -20z m-226 -29 c9 -6 10 -11 2 -15 -13 -8 -31 1 -31 15 0
11 11 11 29 0z m254 -8 c-5 -12 -2 -15 10 -10 11 4 14 2 10 -9 -6 -16 -29 -19
-38 -4 -4 6 -1 17 5 25 16 20 21 19 13 -2z m487 -2 c0 -6 -4 -13 -10 -16 -5
-3 -10 1 -10 9 0 9 5 16 10 16 6 0 10 -4 10 -9z m-720 -41 c0 -5 -4 -10 -10
-10 -5 0 -10 5 -10 10 0 6 5 10 10 10 6 0 10 -4 10 -10z m284 -42 c12 -33 3
-46 -18 -25 -8 8 -12 17 -9 21 3 3 0 13 -8 22 -12 14 -11 16 6 13 11 -3 24
-16 29 -31z m-60 6 c3 -8 2 -12 -4 -9 -6 3 -10 10 -10 16 0 14 7 11 14 -7z
m-4924 -55 c0 -6 -7 -17 -15 -25 -8 -9 -15 -24 -15 -35 0 -10 -5 -19 -11 -19
-7 0 -8 7 -4 18 4 9 12 29 17 45 10 26 28 37 28 16z m5028 -241 c17 -17 15
-38 -3 -38 -8 0 -15 4 -15 9 0 5 -3 16 -6 25 -7 19 7 21 24 4z m47 -113 c4
-29 4 -30 -7 -5 -6 14 -15 35 -20 47 -6 11 -7 27 -2 34 9 14 23 -22 29 -76z
m-145 44 c0 -10 -4 -21 -10 -24 -5 -3 -10 -2 -10 4 0 5 -2 16 -5 24 -4 8 0 14
10 14 8 0 15 -8 15 -18z m42 -68 c-2 -13 1 -27 7 -30 5 -4 6 -12 2 -20 -7 -10
-13 -11 -30 -2 -16 9 -20 18 -15 36 4 15 2 25 -5 25 -6 0 -11 5 -11 11 0 6 12
9 28 7 22 -2 26 -7 24 -27z m-4652 -83 c0 -16 -3 -19 -11 -11 -6 6 -8 16 -5
22 11 17 16 13 16 -11z m4600 -68 c0 -5 -2 -10 -4 -10 -3 0 -8 5 -11 10 -3 6
-1 10 4 10 6 0 11 -4 11 -10z m-40 -20 c0 -5 -4 -10 -10 -10 -5 0 -10 5 -10
10 0 6 5 10 10 10 6 0 10 -4 10 -10z m80 -64 c0 -3 -4 -8 -10 -11 -5 -3 -10
-1 -10 4 0 6 5 11 10 11 6 0 10 -2 10 -4z m-4760 -38 c0 -19 -2 -20 -10 -8
-13 19 -13 30 0 30 6 0 10 -10 10 -22z m4787 -64 c-3 -3 -12 -4 -19 -1 -8 3
-5 6 6 6 11 1 17 -2 13 -5z m-717 -234 c-8 -5 -24 -10 -35 -10 -17 0 -17 2 -5
10 8 5 24 10 35 10 17 0 17 -2 5 -10z m-725 -20 c-3 -5 -13 -10 -21 -10 -8 0
-12 5 -9 10 3 6 13 10 21 10 8 0 12 -4 9 -10z m-530 -51 c-10 -15 -25 -10 -19
6 4 8 10 12 15 9 5 -3 7 -10 4 -15z m-82 -6 c-7 -2 -19 -2 -25 0 -7 3 -2 5 12
5 14 0 19 -2 13 -5z m-1883 -93 c8 -5 11 -10 5 -10 -5 0 -17 5 -25 10 -8 5
-10 10 -5 10 6 0 17 -5 25 -10z m4055 0 c3 -5 -1 -10 -10 -10 -9 0 -13 5 -10
10 3 6 8 10 10 10 2 0 7 -4 10 -10z m12 -36 c-3 -3 -12 -4 -19 -1 -8 3 -5 6 6
6 11 1 17 -2 13 -5z m-3717 -14 c0 -5 -2 -10 -4 -10 -3 0 -8 5 -11 10 -3 6 -1
10 4 10 6 0 11 -4 11 -10z m-740 -24 c0 -2 -7 -6 -15 -10 -8 -3 -15 -1 -15 4
0 6 7 10 15 10 8 0 15 -2 15 -4z m4465 -113 c4 -16 2 -23 -7 -23 -14 0 -38 44
-38 69 0 21 35 -16 45 -46z m18 -46 c-2 -4 -5 -7 -8 -7 -3 0 -12 0 -20 0 -8 0
-15 4 -15 10 0 5 10 8 23 6 12 -1 21 -6 20 -9z m-4658 -46 c-3 -6 -11 -11 -17
-11 -6 0 -6 6 2 15 14 17 26 13 15 -4z m4645 -1 c0 -5 -2 -10 -4 -10 -3 0 -8
5 -11 10 -3 6 -1 10 4 10 6 0 11 -4 11 -10z m70 -5 c0 -9 -9 -15 -21 -15 -15
0 -19 -5 -15 -15 6 -16 -9 -21 -19 -6 -3 5 7 19 21 30 32 25 34 25 34 6z m20
-165 c5 8 10 12 10 8 0 -3 3 -13 6 -21 3 -10 -3 -16 -20 -19 -14 -3 -26 -2
-26 1 0 3 -3 17 -6 31 -5 24 -5 25 11 5 14 -17 17 -18 25 -5z m29 -112 c5 -18
13 -62 15 -98 8 -90 10 -104 18 -110 4 -3 13 -37 22 -77 17 -83 11 -153 -13
-154 -11 0 -12 -2 -3 -6 7 -3 19 1 27 7 12 10 15 9 15 -3 0 -9 -8 -21 -17 -26
-16 -9 -16 -10 5 -11 16 0 22 -6 22 -21 0 -18 -2 -19 -15 -9 -13 11 -14 10 -9
-4 3 -9 12 -16 19 -16 13 0 23 -62 31 -194 l5 -68 -31 4 c-24 4 -30 1 -30 -13
0 -13 5 -16 16 -12 11 4 22 -1 30 -12 18 -25 18 -35 -2 -35 -9 0 -14 -6 -11
-12 2 -7 11 -12 19 -10 12 2 14 -4 10 -25 -3 -16 -10 -31 -16 -36 -7 -5 -6
-11 6 -17 20 -12 22 -70 1 -70 -9 0 -12 -7 -7 -25 4 -15 2 -25 -5 -25 -6 0
-11 6 -12 13 -1 21 -7 48 -15 65 -4 9 -8 20 -8 24 -1 3 -4 10 -8 14 -5 4 -8
17 -8 28 0 12 -9 27 -20 34 -11 7 -20 21 -20 31 0 11 -4 23 -10 26 -5 3 -10
17 -10 31 0 15 -6 24 -15 24 -19 0 -19 10 0 38 14 19 14 24 -1 47 -10 15 -12
25 -5 25 6 0 11 -6 12 -12 1 -7 4 -2 9 12 4 14 5 35 3 48 -3 13 1 30 11 40 14
17 14 19 -4 35 -21 18 -26 37 -11 37 6 0 13 -5 16 -10 7 -12 25 -4 25 11 0 5
-10 9 -22 10 l-23 0 23 11 c25 12 29 33 9 41 -9 3 -12 16 -9 39 3 18 7 27 9
20 3 -6 9 -10 14 -6 14 9 10 41 -6 48 -9 3 -15 18 -15 34 0 16 -3 32 -7 36 -4
4 -9 21 -10 39 -4 46 -7 59 -22 86 -10 19 -11 25 -1 31 10 6 9 9 -3 11 -15 4
-15 7 -3 31 8 15 13 48 12 73 -3 53 8 59 23 13z m-4799 -162 c0 -11 -19 -15
-25 -6 -3 5 1 10 9 10 9 0 16 -2 16 -4z m-30 -120 c0 -3 -4 -8 -10 -11 -5 -3
-10 -1 -10 4 0 6 5 11 10 11 6 0 10 -2 10 -4z m4835 -186 c3 -5 1 -10 -4 -10
-6 0 -11 5 -11 10 0 6 2 10 4 10 3 0 8 -4 11 -10z m-4800 -100 c3 -5 1 -10 -4
-10 -6 0 -11 5 -11 10 0 6 2 10 4 10 3 0 8 -4 11 -10z m-8 -62 c-3 -8 -6 -5
-6 6 -1 11 2 17 5 13 3 -3 4 -12 1 -19z m5190 -14 c-3 -3 -12 -4 -19 -1 -8 3
-5 6 6 6 11 1 17 -2 13 -5z m-4949 -122 c2 -7 -2 -10 -12 -6 -9 3 -16 11 -16
16 0 13 23 5 28 -10z m4469 -38 c-3 -3 -12 -4 -19 -1 -8 3 -5 6 6 6 11 1 17
-2 13 -5z m-4237 -54 c0 -5 -17 -10 -37 -9 -31 0 -34 2 -18 9 28 12 55 12 55
0z m310 -60 c-20 -13 -33 -13 -25 0 3 6 14 10 23 10 15 0 15 -2 2 -10z m4147
-252 c-3 -8 -6 -5 -6 6 -1 11 2 17 5 13 3 -3 4 -12 1 -19z m-17 -127 c0 -29
-15 -33 -18 -5 -1 13 3 24 8 24 6 0 10 -9 10 -19z m7 -53 c-3 -8 -6 -5 -6 6
-1 11 2 17 5 13 3 -3 4 -12 1 -19z m-173 -123 c3 -9 -3 -19 -16 -26 -11 -6
-18 -7 -16 -2 3 4 8 16 11 26 8 21 13 22 21 2z m2 -66 c3 -6 1 -16 -5 -22 -9
-9 -14 -8 -21 3 -5 8 -10 18 -10 23 0 11 28 8 36 -4z m-3069 -105 c-3 -3 -12
-4 -19 -1 -8 3 -5 6 6 6 11 1 17 -2 13 -5z m3413 -83 c0 -6 -4 -13 -10 -16
-18 -11 -11 -27 9 -20 15 5 21 0 26 -25 4 -17 4 -34 1 -37 -3 -4 -6 1 -6 9 0
21 -26 42 -35 28 -19 -31 -27 28 -8 63 6 10 23 9 23 -2z m-530 -10 c0 -6 -4
-13 -10 -16 -5 -3 -10 1 -10 9 0 9 5 16 10 16 6 0 10 -4 10 -9z m-300 -305 c0
-11 -19 -15 -25 -6 -3 5 1 10 9 10 9 0 16 -2 16 -4z m-110 -36 c0 -5 -2 -10
-4 -10 -3 0 -8 5 -11 10 -3 6 -1 10 4 10 6 0 11 -4 11 -10z m927 -12 c-3 -8
-6 -5 -6 6 -1 11 2 17 5 13 3 -3 4 -12 1 -19z m-1195 -3 c0 -5 -5 -11 -11 -13
-6 -2 -11 4 -11 13 0 9 5 15 11 13 6 -2 11 -8 11 -13z m56 3 c14 -14 16 -28 2
-28 -5 0 -14 9 -20 20 -12 22 -1 27 18 8z m-48 -57 c0 -6 -4 -13 -10 -16 -5
-3 -10 1 -10 9 0 9 5 16 10 16 6 0 10 -4 10 -9z m-3895 -39 c-8 -8 -25 10 -19
20 4 6 9 5 15 -3 4 -7 6 -15 4 -17z m1493 0 c2 -7 -3 -12 -12 -12 -9 0 -16 7
-16 16 0 17 22 14 28 -4z m-1536 -14 c-7 -7 -12 -8 -12 -2 0 14 12 26 19 19 2
-3 -1 -11 -7 -17z m78 -48 c0 -5 -8 -10 -17 -10 -15 0 -16 2 -3 10 19 12 20
12 20 0z m-55 -20 c3 -5 -1 -10 -9 -10 -9 0 -16 5 -16 10 0 6 4 10 9 10 6 0
13 -4 16 -10z m95 1 c0 -12 -26 -32 -33 -25 -6 7 14 33 26 34 4 0 7 -4 7 -9z
m3864 -26 c-7 -17 -34 -21 -34 -4 0 5 5 7 10 4 6 -3 10 -1 10 4 0 6 4 11 10
11 5 0 7 -7 4 -15z m-3947 -27 c-3 -8 -6 -5 -6 6 -1 11 2 17 5 13 3 -3 4 -12
1 -19z m4043 7 c0 -8 -4 -15 -10 -15 -5 0 -10 7 -10 15 0 8 5 15 10 15 6 0 10
-7 10 -15z m-3980 -25 c0 -5 -4 -10 -9 -10 -6 0 -13 5 -16 10 -3 6 1 10 9 10
9 0 16 -4 16 -10z m225 -41 c4 -11 4 -23 1 -26 -3 -4 -6 1 -6 10 0 9 -8 21
-17 26 -16 9 -17 10 -1 11 9 0 20 -9 23 -21z m-404 -10 c17 -17 19 -23 8 -30
-15 -9 -39 14 -39 38 0 18 7 16 31 -8z m202 -20 c11 -8 17 -21 13 -27 -8 -14
-36 -4 -36 13 0 8 -8 11 -22 8 -21 -4 -22 -3 -5 10 9 8 17 20 18 28 0 11 2 11
6 -1 4 -8 15 -22 26 -31z m267 1 c0 -5 -4 -10 -10 -10 -5 0 -10 5 -10 10 0 6
5 10 10 10 6 0 10 -4 10 -10z m-361 -38 c-5 -2 -17 -1 -25 2 -13 5 -14 9 -4
21 11 13 14 13 26 -2 7 -10 9 -19 3 -21z m155 23 c-4 -8 -10 -15 -15 -15 -4 0
-6 7 -3 15 4 8 10 15 15 15 4 0 6 -7 3 -15z m76 5 c0 -5 -7 -7 -15 -4 -8 4
-15 8 -15 10 0 2 7 4 15 4 8 0 15 -4 15 -10z m-327 -80 c3 -11 1 -20 -4 -20
-5 0 -9 2 -9 4 0 2 -3 11 -6 20 -3 9 -2 16 4 16 5 0 12 -9 15 -20z m637 10 c0
-5 -5 -10 -11 -10 -5 0 -7 5 -4 10 3 6 8 10 11 10 2 0 4 -4 4 -10z m3384 -106
c3 -8 2 -12 -4 -9 -6 3 -10 10 -10 16 0 14 7 11 14 -7z m-2764 -193 c0 -6 -4
-13 -10 -16 -5 -3 -10 1 -10 9 0 9 5 16 10 16 6 0 10 -4 10 -9z m-33 -7 c-3
-3 -12 -4 -19 -1 -8 3 -5 6 6 6 11 1 17 -2 13 -5z m-1132 -24 c3 -5 -1 -10
-10 -10 -9 0 -13 5 -10 10 3 6 8 10 10 10 2 0 7 -4 10 -10z m1120 -10 c-3 -5
-11 -10 -16 -10 -6 0 -7 5 -4 10 3 6 11 10 16 10 6 0 7 -4 4 -10z m-1128 -42
c-3 -8 -6 -5 -6 6 -1 11 2 17 5 13 3 -3 4 -12 1 -19z m793 12 c0 -5 -7 -10
-16 -10 -8 0 -12 5 -9 10 3 6 10 10 16 10 5 0 9 -4 9 -10z m2437 -332 c-3 -8
-6 -5 -6 6 -1 11 2 17 5 13 3 -3 4 -12 1 -19z m-1522 -58 c-3 -5 -12 -10 -18
-10 -7 0 -6 4 3 10 19 12 23 12 15 0z m-1235 -666 c0 -8 -4 -14 -10 -14 -5 0
-10 9 -10 21 0 11 5 17 10 14 6 -3 10 -13 10 -21z m-2 -235 c-3 -8 -7 -3 -11
10 -4 17 -3 21 5 13 5 -5 8 -16 6 -23z m-5 -70 c-9 -9 -12 -7 -10 9 1 14 5 18
11 12 7 -7 6 -14 -1 -21z m4 -221 c-3 -8 -6 -5 -6 6 -1 11 2 17 5 13 3 -3 4
-12 1 -19z m-919 -827 c-7 -11 -16 -18 -20 -15 -4 3 -2 11 5 19 18 21 29 18
15 -4z m-88 -36 c0 -8 -7 -15 -15 -15 -9 0 -29 -10 -44 -21 -16 -12 -35 -19
-43 -17 -8 3 0 11 20 22 17 9 32 21 32 26 0 7 16 15 43 19 4 0 7 -6 7 -14z
m95 -55 c-3 -5 -11 -10 -16 -10 -6 0 -7 5 -4 10 3 6 11 10 16 10 6 0 7 -4 4
-10z m66 -149 c5 -24 3 -34 -8 -38 -23 -9 -34 10 -27 46 8 39 26 35 35 -8z
m13 -177 c13 -35 7 -54 -19 -54 -23 0 -25 3 -19 28 11 46 26 57 38 26z m-4
-203 c0 -33 -11 -44 -34 -35 -14 5 -14 9 0 35 19 37 34 37 34 0z m636 -142
c-15 -12 -30 -19 -33 -15 -4 3 -1 6 6 6 7 0 10 4 7 9 -6 10 9 19 33 20 7 1 2
-9 -13 -20z m4451 -46 c46 -129 43 -169 -11 -130 -18 13 -56 107 -56 137 0 48
50 42 67 -7z m91 -10 c7 -26 10 -31 11 -15 1 26 17 29 25 5 2 -10 8 -49 11
-88 4 -38 11 -86 16 -105 5 -19 5 -38 0 -43 -5 -5 -12 4 -15 20 -4 15 -17 35
-28 44 -25 20 -47 76 -58 149 -4 30 -9 60 -10 65 -10 45 36 14 48 -32z m-5202
11 c7 -40 -8 -66 -27 -47 -13 13 -4 83 11 83 5 0 12 -16 16 -36z m684 -38 c0
-2 -7 -9 -15 -16 -13 -11 -14 -10 -9 4 5 14 24 23 24 12z m4356 -64 c4 -19 2
-32 -4 -32 -10 0 -22 33 -22 65 0 29 18 6 26 -33z m-5071 -89 c-9 -37 -22 -50
-37 -35 -15 15 5 62 28 62 13 0 15 -6 9 -27z m791 -15 c-18 -62 -19 -88 -2
-88 15 0 21 -15 18 -52 -1 -9 5 -22 13 -28 8 -7 15 -18 15 -25 0 -7 16 -33 36
-59 34 -45 35 -48 17 -61 -17 -14 -16 -14 8 -15 19 0 29 -8 40 -32 11 -27 34
-44 119 -88 134 -70 177 -99 237 -160 14 -14 29 -25 34 -25 5 0 10 -4 12 -10
1 -5 22 -29 46 -52 29 -29 38 -43 27 -43 -9 0 -16 7 -16 16 0 9 -6 14 -14 11
-7 -3 -47 26 -92 69 -43 41 -81 74 -84 74 -3 0 -25 16 -49 35 -24 19 -50 35
-58 35 -8 0 -27 8 -41 19 -15 10 -42 22 -59 26 -18 3 -33 11 -33 16 0 5 -7 9
-15 9 -9 0 -18 7 -21 15 -4 8 -9 13 -14 10 -4 -2 -17 6 -29 19 -14 15 -30 22
-42 19 -13 -4 -28 4 -45 22 l-25 27 -31 -33 c-19 -19 -28 -24 -23 -13 5 10 11
52 14 92 5 57 10 77 25 88 14 10 22 11 27 3 4 -6 12 -8 18 -4 9 5 9 10 0 21
-6 7 -9 21 -5 29 3 10 -1 15 -14 15 -10 0 -22 -9 -25 -21 -4 -11 -22 -34 -41
-51 -19 -17 -34 -39 -34 -49 0 -10 -9 -27 -21 -38 -12 -11 -18 -25 -14 -31 4
-6 0 -22 -9 -35 -9 -13 -13 -32 -9 -41 4 -10 0 -22 -12 -30 -12 -9 -16 -20
-11 -39 5 -18 2 -27 -9 -31 -9 -4 -15 -18 -15 -35 0 -19 -5 -29 -15 -29 -10 0
-15 -11 -15 -35 0 -19 -4 -35 -10 -35 -5 0 -10 -11 -10 -25 0 -14 -8 -29 -20
-35 -15 -8 -19 -17 -14 -34 4 -16 0 -25 -10 -29 -9 -4 -16 -15 -16 -26 0 -20
-16 -36 -35 -36 -5 0 -11 -9 -13 -20 -2 -11 -9 -25 -15 -30 -7 -6 -17 -19 -23
-30 -6 -11 -22 -22 -35 -25 -15 -4 -23 -12 -21 -23 2 -10 -6 -21 -20 -26 -13
-5 -31 -19 -40 -30 -21 -25 -48 -28 -48 -5 0 8 -4 12 -10 9 -5 -3 -10 -15 -10
-25 0 -21 -34 -45 -50 -35 -6 4 -17 -1 -26 -9 -22 -23 -54 -20 -54 4 0 28 -18
25 -26 -5 -4 -17 -15 -27 -33 -31 -14 -3 -39 -12 -56 -20 -27 -12 -31 -11 -46
7 -15 20 -15 20 -26 -4 -8 -17 -22 -26 -50 -30 -21 -4 -50 -9 -65 -13 -23 -5
-27 -3 -31 22 l-4 29 -14 -33 c-14 -34 -59 -56 -67 -34 -5 17 -22 15 -22 -3 0
-8 -9 -15 -20 -15 -11 0 -20 -4 -20 -10 0 -5 -4 -10 -10 -10 -5 0 -10 6 -10
14 0 29 -21 27 -31 -3 -11 -32 -44 -42 -65 -21 -14 14 -44 2 -44 -16 0 -8 -10
-14 -21 -14 -17 0 -20 5 -17 25 4 17 1 25 -9 25 -7 0 -16 -13 -19 -30 -7 -34
-13 -35 -62 -18 -29 11 -35 10 -43 -5 -12 -20 -33 -23 -26 -3 3 8 -1 17 -9 20
-10 4 -13 13 -9 26 4 12 2 20 -5 20 -8 0 -11 -13 -8 -35 3 -28 0 -36 -16 -41
-14 -5 -24 0 -34 15 -18 26 -32 27 -32 3 0 -10 -7 -27 -15 -39 -15 -21 -14
-23 11 -40 32 -21 124 -20 229 3 39 8 93 19 120 24 47 8 85 19 130 39 57 26
106 39 163 46 35 4 100 22 145 40 45 18 108 35 139 39 59 6 201 58 229 83 9 7
34 19 54 24 55 16 153 122 215 234 39 71 39 70 45 64 9 -9 -24 -86 -59 -138
-20 -29 -36 -59 -36 -66 0 -8 -13 -23 -29 -35 -17 -11 -32 -28 -35 -38 -3 -9
-19 -26 -36 -37 -16 -11 -35 -32 -41 -47 -6 -16 -14 -28 -18 -29 -3 0 -15 -2
-27 -3 -11 -1 -39 -17 -61 -35 -22 -18 -57 -34 -79 -38 -21 -3 -50 -14 -64
-23 -14 -10 -43 -23 -65 -29 -56 -15 -163 -39 -210 -47 -22 -4 -44 -10 -50
-14 -10 -8 -74 -20 -110 -21 -17 -1 -229 -47 -365 -81 -25 -6 -134 -13 -242
-16 -192 -4 -198 -4 -198 16 0 12 32 47 88 95 84 73 132 123 132 139 0 4 32
42 70 85 39 43 70 81 70 85 0 4 19 35 42 70 23 35 63 113 90 175 57 135 85
190 135 264 21 31 62 91 91 133 28 43 52 81 52 84 1 4 16 25 35 46 41 46 44
31 10 -39 -14 -27 -25 -58 -25 -67 0 -10 -5 -18 -12 -18 -6 0 -9 -3 -5 -6 3
-4 -2 -23 -13 -44 -11 -21 -17 -40 -15 -42 3 -2 0 -20 -5 -39 -6 -19 -15 -63
-21 -99 -24 -151 -41 -200 -86 -249 -24 -25 -40 -38 -37 -29 3 10 1 18 -5 18
-6 0 -11 -7 -11 -15 0 -15 -19 -55 -31 -65 -4 -3 -23 -32 -44 -65 -21 -33 -60
-84 -88 -112 -34 -35 -46 -53 -35 -53 19 0 102 90 125 134 20 41 18 39 42 24
23 -14 27 -38 10 -55 -21 -21 -5 -35 17 -14 16 14 24 17 33 8 8 -8 4 -23 -15
-56 l-26 -46 44 48 c33 38 51 49 78 52 19 1 43 6 53 10 21 9 22 -5 2 -48 -15
-31 -10 -26 30 37 11 17 34 35 50 40 17 4 38 12 47 17 22 11 58 12 58 1 0 -4
-7 -18 -16 -30 -9 -13 -14 -26 -11 -28 3 -3 13 9 24 26 19 34 77 75 91 66 5
-3 23 0 40 6 38 15 49 6 30 -24 -8 -13 -17 -32 -21 -43 -6 -16 -4 -16 11 4 44
61 80 91 110 91 16 0 35 7 42 15 8 10 17 12 28 6 11 -6 25 -2 48 15 17 13 38
22 46 19 8 -3 25 3 37 14 13 12 28 18 33 15 5 -3 18 6 29 20 11 14 27 26 35
26 7 0 19 9 26 20 7 11 17 20 23 20 5 0 18 12 27 28 10 15 36 52 58 82 21 30
42 68 46 85 3 16 15 47 26 69 21 42 61 160 72 216 4 19 11 76 15 126 8 95 29
143 62 144 9 0 22 7 29 15 7 8 24 15 37 15 22 0 24 -3 19 -22z m4408 -160 c-3
-5 -12 -4 -20 3 -7 6 -11 15 -8 21 3 5 12 4 20 -3 7 -6 11 -15 8 -21z m-5264
-7 c0 -32 -18 -51 -30 -32 -11 18 0 61 16 61 9 0 14 -11 14 -29z m5888 -165
c42 -59 97 -137 122 -172 25 -35 72 -102 105 -150 33 -47 69 -99 80 -114 11
-15 40 -56 64 -91 25 -35 59 -82 78 -104 211 -257 209 -255 193 -285 -16 -29
-36 -31 -245 -26 -305 8 -459 22 -476 42 -6 8 -21 14 -34 14 -12 0 -32 9 -45
20 -13 11 -37 20 -56 20 -25 0 -38 7 -50 25 -10 16 -23 24 -33 20 -10 -3 -37
14 -71 45 -30 27 -50 49 -43 50 7 0 24 -11 39 -25 15 -14 35 -25 46 -25 10 0
21 -7 24 -15 9 -23 23 -18 16 7 -4 17 -2 20 11 15 9 -3 17 -1 19 5 3 8 12 6
28 -5 18 -13 46 -17 111 -17 64 0 98 -5 131 -20 60 -26 282 -38 348 -18 42 13
45 16 46 51 0 20 3 40 7 44 13 12 8 26 -5 16 -28 -22 -58 -22 -70 0 l-11 21
-8 -22 c-12 -32 -42 -27 -64 11 -18 29 -20 30 -23 10 -5 -34 -29 -50 -54 -34
-14 9 -23 9 -33 1 -17 -14 -40 -4 -53 26 -14 28 -36 33 -27 5 3 -11 1 -22 -5
-26 -6 -4 -9 -13 -6 -21 9 -25 -9 -15 -33 17 -21 29 -24 30 -41 14 -18 -16
-20 -15 -42 19 -26 41 -41 47 -33 13 4 -14 1 -28 -8 -35 -11 -9 -16 -7 -26 12
-10 18 -21 23 -45 22 -25 -1 -32 3 -34 22 -3 21 -22 32 -22 12 0 -17 -40 -11
-47 8 -4 9 -17 25 -30 35 -13 10 -23 26 -23 35 0 15 -2 15 -10 2 -8 -12 -14
-10 -39 14 -19 19 -30 38 -29 53 3 28 6 28 25 6 13 -17 14 -16 10 8 -8 52 44
17 89 -58 30 -52 41 -52 19 0 -13 32 -13 37 -1 37 8 0 18 -5 21 -11 4 -6 13
-8 21 -5 25 10 45 -6 76 -61 32 -57 51 -67 24 -12 -31 61 -15 77 35 34 16 -13
36 -22 43 -19 8 3 29 -12 48 -35 41 -48 55 -53 33 -11 -23 44 -20 53 16 46 25
-5 30 -3 25 9 -9 23 3 43 30 49 27 7 31 27 10 45 -8 6 -19 31 -25 56 -6 24
-27 74 -46 112 -19 37 -35 75 -35 83 0 8 -9 28 -20 45 -11 16 -22 49 -26 72
-3 24 -10 43 -15 43 -5 0 -9 9 -9 20 0 12 -7 32 -16 45 -9 13 -13 29 -9 35 3
6 -3 25 -14 44 -12 18 -21 36 -21 40 0 17 50 -41 118 -138z m-225 93 c54 -44
100 -116 108 -169 8 -56 1 -71 -56 -109 -65 -44 -104 -41 -131 10 -8 16 -10
29 -5 29 12 0 -3 54 -24 86 -8 13 -14 33 -12 46 3 31 -28 36 -37 6 -7 -23 -8
-22 -21 7 -21 45 -19 52 24 79 22 14 42 30 46 36 13 21 70 10 108 -21z m-306
-1 c-3 -8 -6 -5 -6 6 -1 11 2 17 5 13 3 -3 4 -12 1 -19z m-5423 -90 c-8 -49
-12 -58 -24 -58 -11 0 -14 49 -4 74 3 9 12 16 20 16 10 0 12 -9 8 -32z m272
-30 c83 -73 76 -158 -23 -249 -68 -64 -154 -89 -183 -54 -9 11 -16 12 -25 5
-9 -8 -15 -8 -20 0 -5 8 -11 8 -21 -1 -15 -12 -17 -9 -8 14 4 10 14 14 32 11
l27 -5 -28 28 c-48 51 -30 136 45 212 78 80 143 93 204 39z m567 -53 c-3 -9
-8 -14 -10 -11 -3 3 -2 9 2 15 9 16 15 13 8 -4z m4752 5 c3 -5 1 -10 -4 -10
-6 0 -11 5 -11 10 0 6 2 10 4 10 3 0 8 -4 11 -10z m-5643 -149 c-2 -23 -8 -38
-13 -35 -10 6 -12 67 -3 77 14 13 20 -3 16 -42z m824 -51 c-9 -17 -24 -44 -33
-62 -9 -18 -18 -27 -21 -20 -2 7 7 31 21 55 13 23 28 56 32 72 8 27 9 28 13 7
2 -12 -4 -36 -12 -52z m-346 51 c0 -12 -46 -41 -53 -34 -4 3 4 14 16 24 24 20
37 24 37 10z m655 -67 c28 -18 113 -124 133 -164 6 -14 13 -36 14 -50 2 -14 9
-30 17 -36 11 -8 4 -20 -34 -57 -47 -47 -68 -56 -80 -37 -3 6 -1 10 5 10 21 0
5 35 -17 36 -15 1 -20 -3 -16 -15 3 -12 0 -11 -11 3 -20 25 -20 36 -1 36 9 0
15 10 15 26 0 18 -4 25 -14 21 -14 -6 -106 82 -106 102 0 5 -9 15 -20 21 -29
16 -25 29 23 76 48 48 58 51 92 28z m4748 2 c6 -16 -2 -28 -14 -20 -12 7 -11
34 0 34 5 0 11 -6 14 -14z m-360 -30 c6 -16 -2 -28 -14 -20 -12 7 -11 34 0 34
5 0 11 -6 14 -14z m-5235 -18 c-9 -13 -24 -24 -34 -26 -15 -2 -13 2 9 23 35
31 44 32 25 3z m-301 -23 c7 -20 -2 -29 -21 -22 -9 4 -13 13 -10 22 8 19 23
19 31 0z m5590 -36 c13 -26 7 -69 -8 -69 -5 0 -9 14 -9 30 0 20 -5 30 -15 30
-15 0 -20 21 -8 34 11 11 27 1 40 -25z m-5592 -19 c18 -8 17 -9 -7 -9 -16 -1
-28 4 -28 9 0 12 8 12 35 0z m129 -4 c-3 -8 -13 -16 -22 -19 -9 -3 -25 -8 -34
-12 -28 -11 -21 9 10 27 33 21 53 23 46 4z m-220 -55 c3 -5 -1 -14 -9 -21 -17
-14 -56 -4 -49 13 5 15 51 21 58 8z m1216 -76 c14 -19 14 -19 -2 -6 -10 7 -18
18 -18 24 0 6 1 8 3 6 1 -2 9 -13 17 -24z m278 -177 c-2 -6 -10 -14 -16 -16
-7 -2 -10 2 -6 12 7 18 28 22 22 4z m102 -33 c27 -13 52 -30 56 -36 11 -18
-56 1 -80 22 -21 20 -52 26 -41 9 9 -15 -11 -12 -24 3 -28 34 23 35 89 2z
m3190 -102 c0 -5 -14 -8 -31 -9 -20 -1 -26 2 -17 7 16 11 48 12 48 2z m80
-107 c0 -3 -4 -8 -10 -11 -5 -3 -10 -1 -10 4 0 6 5 11 10 11 6 0 10 -2 10 -4z
m-116 -41 c-4 -8 -11 -12 -16 -9 -6 4 -5 10 3 15 19 12 19 11 13 -6z m66 12
c0 -2 -10 -12 -22 -23 l-23 -19 19 23 c18 21 26 27 26 19z m-105 -37 c-3 -5
-16 -10 -28 -10 -18 0 -19 2 -7 10 20 13 43 13 35 0z"/>
<path d="M7685 11870 c3 -5 11 -10 16 -10 6 0 7 5 4 10 -3 6 -11 10 -16 10 -6
0 -7 -4 -4 -10z"/>
<path d="M8070 11500 c0 -5 5 -10 10 -10 6 0 10 5 10 10 0 6 -4 10 -10 10 -5
0 -10 -4 -10 -10z"/>
<path d="M8736 7483 c6 -4 14 -15 17 -23 5 -11 6 -9 4 4 -1 11 -9 21 -17 23
-10 3 -11 2 -4 -4z"/>
<path d="M8805 7090 c3 -5 8 -10 11 -10 2 0 4 5 4 10 0 6 -5 10 -11 10 -5 0
-7 -4 -4 -10z"/>
<path d="M8787 7030 c3 -11 7 -20 9 -20 2 0 4 9 4 20 0 11 -4 20 -9 20 -5 0
-7 -9 -4 -20z"/>
<path d="M8800 6980 c0 -5 5 -10 11 -10 5 0 7 -4 4 -10 -3 -5 -2 -10 4 -10 20
0 21 19 1 30 -13 7 -20 7 -20 0z"/>
<path d="M8715 6960 c-4 -6 3 -10 14 -10 25 0 27 6 6 13 -8 4 -17 2 -20 -3z"/>
<path d="M8787 6872 c19 -14 35 -12 41 6 2 7 -8 11 -27 9 -28 -2 -29 -3 -14
-15z"/>
<path d="M8785 6840 c3 -5 8 -10 11 -10 2 0 4 5 4 10 0 6 -5 10 -11 10 -5 0
-7 -4 -4 -10z"/>
<path d="M8816 6811 c-4 -7 -5 -15 -2 -18 9 -9 19 4 14 18 -4 11 -6 11 -12 0z"/>
<path d="M4335 1150 c3 -5 8 -10 11 -10 2 0 4 5 4 10 0 6 -5 10 -11 10 -5 0
-7 -4 -4 -10z"/>
<path d="M2967 706 c-10 -22 -23 -49 -28 -58 -11 -22 -12 -41 0 -34 10 6 56
125 50 130 -2 2 -12 -15 -22 -38z"/>
<path d="M3586 479 c-9 -18 -14 -34 -12 -37 3 -2 12 10 21 28 9 18 14 34 12
37 -3 2 -12 -10 -21 -28z"/>
<path d="M9556 655 c4 -8 11 -15 16 -15 6 0 5 6 -2 15 -7 8 -14 15 -16 15 -2
0 -1 -7 2 -15z"/>
<path d="M9415 590 c-3 -6 1 -13 9 -16 9 -3 16 -11 16 -18 0 -16 79 -104 80
-88 0 15 -80 132 -91 132 -4 0 -11 -5 -14 -10z"/>
<path d="M9660 511 c0 -6 4 -13 10 -16 6 -3 7 1 4 9 -7 18 -14 21 -14 7z"/>
<path d="M9685 470 c3 -5 8 -10 11 -10 2 0 4 5 4 10 0 6 -5 10 -11 10 -5 0 -7
-4 -4 -10z"/>
<path d="M9015 1078 c14 -46 55 -69 55 -30 0 24 -12 38 -38 47 -22 6 -23 5
-17 -17z"/>
<path d="M3504 982 c-12 -9 -24 -25 -28 -35 -3 -11 -15 -21 -26 -24 -11 -3
-20 -9 -20 -14 0 -19 27 -8 59 23 54 52 65 92 15 50z"/>
<path d="M4505 640 c3 -5 14 -10 23 -10 15 0 15 2 2 10 -20 13 -33 13 -25 0z"/>
<path d="M4488 613 c7 -3 16 -2 19 1 4 3 -2 6 -13 5 -11 0 -14 -3 -6 -6z"/>
<path d="M7036 12123 c-11 -11 -6 -23 8 -23 8 0 17 4 20 9 7 10 -19 23 -28 14z"/>
<path d="M6240 12049 c0 -5 5 -7 10 -4 6 3 10 8 10 11 0 2 -4 4 -10 4 -5 0
-10 -5 -10 -11z"/>
<path d="M7318 12023 c7 -3 16 -2 19 1 4 3 -2 6 -13 5 -11 0 -14 -3 -6 -6z"/>
<path d="M6465 11973 c-11 -3 -24 -9 -30 -14 -12 -12 56 0 70 12 10 10 -6 10
-40 2z"/>
<path d="M8290 11247 c0 -30 -3 -64 -6 -74 -5 -17 -5 -17 6 0 12 18 16 114 6
124 -3 4 -6 -19 -6 -50z"/>
<path d="M8462 11000 c0 -19 2 -27 5 -17 2 9 2 25 0 35 -3 9 -5 1 -5 -18z"/>
<path d="M8336 10955 c3 -8 11 -13 17 -12 6 1 16 -9 24 -23 l13 -25 0 26 c0
29 -17 49 -42 49 -11 0 -15 -5 -12 -15z"/>
<path d="M8650 10838 c0 -32 3 -39 10 -28 13 20 13 70 0 70 -5 0 -10 -19 -10
-42z"/>
<path d="M8291 10863 c0 -6 -4 -20 -7 -30 -5 -14 -4 -15 5 -7 7 7 11 20 8 30
-3 11 -5 14 -6 7z"/>
<path d="M8372 10825 c0 -16 2 -22 5 -12 2 9 2 23 0 30 -3 6 -5 -1 -5 -18z"/>
<path d="M6424 10574 c3 -29 29 -54 43 -41 4 5 3 11 -3 15 -6 4 -18 18 -27 31
l-16 24 3 -29z"/>
<path d="M8787 10560 c3 -25 9 -54 14 -65 14 -36 9 25 -6 70 l-13 40 5 -45z"/>
<path d="M6190 10567 c0 -9 4 -18 10 -22 5 -3 7 -12 3 -20 -3 -8 0 -15 6 -15
6 0 11 5 11 11 0 7 8 18 18 25 14 11 15 15 3 26 -12 11 -13 10 -8 -5 6 -16 5
-16 -18 -1 -22 15 -25 15 -25 1z"/>
<path d="M8527 10554 c-4 -4 -7 -14 -7 -23 0 -11 3 -12 11 -4 6 6 10 16 7 23
-2 6 -7 8 -11 4z"/>
<path d="M8750 10525 c0 -8 5 -15 10 -15 6 0 10 7 10 15 0 8 -4 15 -10 15 -5
0 -10 -7 -10 -15z"/>
<path d="M6720 10516 c0 -9 -7 -16 -15 -16 -8 0 -15 -3 -15 -7 0 -16 16 -28
34 -28 23 0 30 40 9 56 -10 9 -13 8 -13 -5z"/>
<path d="M5976 10495 c-3 -8 -1 -15 4 -15 6 0 10 7 10 15 0 8 -2 15 -4 15 -2
0 -6 -7 -10 -15z"/>
<path d="M6226 10493 c-6 -14 -5 -15 5 -6 7 7 10 15 7 18 -3 3 -9 -2 -12 -12z"/>
<path d="M6585 10480 c3 -5 11 -10 16 -10 6 0 7 5 4 10 -3 6 -11 10 -16 10 -6
0 -7 -4 -4 -10z"/>
<path d="M6780 10470 c0 -5 7 -10 15 -10 8 0 15 5 15 10 0 6 -7 10 -15 10 -8
0 -15 -4 -15 -10z"/>
<path d="M5665 10410 c3 -5 8 -10 11 -10 2 0 4 5 4 10 0 6 -5 10 -11 10 -5 0
-7 -4 -4 -10z"/>
<path d="M5683 10354 c-8 -21 -1 -25 20 -9 15 11 16 13 2 19 -9 3 -18 -1 -22
-10z"/>
<path d="M6966 10356 c3 -9 11 -16 16 -16 13 0 5 23 -10 28 -7 2 -10 -2 -6
-12z"/>
<path d="M7116 10294 c-7 -18 1 -37 13 -29 5 2 11 14 14 25 6 24 -18 28 -27 4z"/>
<path d="M7338 10283 c7 -3 16 -2 19 1 4 3 -2 6 -13 5 -11 0 -14 -3 -6 -6z"/>
<path d="M4930 10230 c0 -5 5 -10 10 -10 6 0 10 5 10 10 0 6 -4 10 -10 10 -5
0 -10 -4 -10 -10z"/>
<path d="M4810 10190 c0 -5 14 -7 33 -3 45 8 47 13 4 13 -20 0 -37 -4 -37 -10z"/>
<path d="M4930 10190 c0 -5 9 -10 20 -10 11 0 20 5 20 10 0 6 -9 10 -20 10
-11 0 -20 -4 -20 -10z"/>
<path d="M7432 10168 c2 -6 10 -14 16 -16 7 -2 10 2 6 12 -7 18 -28 22 -22 4z"/>
<path d="M4995 10159 c7 -11 52 -12 58 -1 3 4 -10 8 -29 9 -19 1 -32 -3 -29
-8z"/>
<path d="M8700 10101 c0 -20 17 -37 27 -28 7 8 -7 47 -18 47 -5 0 -9 -9 -9
-19z"/>
<path d="M7540 10060 c0 -5 5 -10 11 -10 5 0 7 5 4 10 -3 6 -8 10 -11 10 -2 0
-4 -4 -4 -10z"/>
<path d="M7419 10024 c-9 -11 -5 -14 25 -14 41 0 49 15 11 22 -14 3 -30 -1
-36 -8z"/>
<path d="M7587 10013 c-3 -5 -2 -15 2 -22 7 -10 10 -10 16 -1 4 6 3 16 -3 22
-5 5 -12 6 -15 1z"/>
<path d="M4228 9853 c6 -2 9 -10 6 -15 -4 -7 -2 -8 4 -4 18 11 14 26 -5 25
-11 0 -13 -3 -5 -6z"/>
<path d="M8210 9550 c0 -5 5 -10 11 -10 5 0 7 5 4 10 -3 6 -8 10 -11 10 -2 0
-4 -4 -4 -10z"/>
<path d="M8260 9503 c0 -13 5 -23 10 -23 13 0 13 11 0 30 -8 12 -10 11 -10 -7z"/>
<path d="M8218 9373 c7 -3 16 -2 19 1 4 3 -2 6 -13 5 -11 0 -14 -3 -6 -6z"/>
<path d="M8259 9129 c-10 -6 -7 -9 15 -9 24 0 27 -2 16 -15 -7 -8 -21 -15 -31
-15 -11 0 -19 -4 -19 -10 0 -5 9 -10 20 -10 12 0 20 -7 20 -16 0 -33 23 -6 25
29 2 41 -19 63 -46 46z"/>
<path d="M8240 9040 c0 -5 4 -10 9 -10 6 0 13 5 16 10 3 6 -1 10 -9 10 -9 0
-16 -4 -16 -10z"/>
<path d="M8230 8996 c0 -22 3 -27 11 -19 8 8 8 16 0 30 -9 16 -10 14 -11 -11z"/>
<path d="M8230 8935 c0 -8 5 -15 10 -15 6 0 10 7 10 15 0 8 -4 15 -10 15 -5 0
-10 -7 -10 -15z"/>
<path d="M8430 8570 c0 -5 5 -10 10 -10 6 0 10 5 10 10 0 6 -4 10 -10 10 -5 0
-10 -4 -10 -10z"/>
<path d="M6270 8430 c0 -5 5 -10 10 -10 6 0 10 5 10 10 0 6 -4 10 -10 10 -5 0
-10 -4 -10 -10z"/>
<path d="M8260 8404 c-14 -8 -18 -13 -10 -13 24 1 55 15 44 21 -5 2 -20 -1
-34 -8z"/>
<path d="M5640 8359 c0 -5 5 -7 10 -4 6 3 10 8 10 11 0 2 -4 4 -10 4 -5 0 -10
-5 -10 -11z"/>
<path d="M6040 8359 c0 -5 5 -7 10 -4 6 3 10 8 10 11 0 2 -4 4 -10 4 -5 0 -10
-5 -10 -11z"/>
<path d="M4578 8313 c7 -3 16 -2 19 1 4 3 -2 6 -13 5 -11 0 -14 -3 -6 -6z"/>
<path d="M8480 8290 c0 -5 5 -10 11 -10 5 0 7 5 4 10 -3 6 -8 10 -11 10 -2 0
-4 -4 -4 -10z"/>
<path d="M3965 7000 c3 -5 8 -10 11 -10 2 0 4 5 4 10 0 6 -5 10 -11 10 -5 0
-7 -4 -4 -10z"/>
<path d="M7005 6690 c4 -6 11 -8 16 -5 14 9 11 15 -7 15 -8 0 -12 -5 -9 -10z"/>
<path d="M3601 6634 c0 -11 3 -14 6 -6 3 7 2 16 -1 19 -3 4 -6 -2 -5 -13z"/>
<path d="M7066 6578 c5 -21 2 -28 -10 -28 -18 0 -20 -12 -7 -38 5 -9 16 -33
25 -52 8 -20 27 -49 41 -65 33 -38 115 -161 115 -173 0 -5 10 -31 22 -58 18
-40 23 -45 26 -26 2 12 8 22 14 22 5 0 1 15 -9 33 -23 38 -34 77 -23 77 4 0 6
9 3 21 -4 12 -11 18 -20 15 -21 -8 -38 4 -22 15 11 7 10 9 -3 9 -19 0 -25 25
-8 35 6 3 10 14 10 23 -1 15 -2 15 -15 -2 -13 -17 -15 -18 -15 -3 0 9 -5 17
-11 17 -5 0 -7 5 -4 11 10 16 -15 68 -36 74 -12 4 -19 16 -19 30 0 13 -4 26
-10 30 -5 3 -7 12 -3 20 3 10 -1 15 -15 15 -11 0 -23 6 -26 13 -3 6 -3 0 0
-15z"/>
<path d="M3625 6560 c3 -5 8 -10 11 -10 2 0 4 5 4 10 0 6 -5 10 -11 10 -5 0
-7 -4 -4 -10z"/>
<path d="M3626 6531 c-4 -7 -5 -15 -2 -18 9 -9 19 4 14 18 -4 11 -6 11 -12 0z"/>
<path d="M3593 6473 c-7 -2 -13 -9 -13 -14 0 -6 5 -7 10 -4 6 3 10 1 10 -4 0
-6 -4 -11 -10 -11 -5 0 -10 -7 -10 -15 0 -8 -4 -15 -8 -15 -16 0 -36 -127 -33
-217 2 -76 -1 -93 -12 -93 -8 0 -18 -7 -21 -16 -7 -18 1 -37 13 -29 5 2 6 -7
3 -20 -2 -15 0 -25 7 -25 7 0 9 -5 6 -11 -4 -5 -1 -18 7 -27 24 -31 38 -61 38
-84 0 -17 3 -19 9 -10 6 10 10 8 14 -10 9 -32 8 -45 -2 -30 -6 11 -10 8 -14
-10 -8 -30 -41 -33 -56 -5 -10 20 -11 18 -6 -12 3 -18 5 -47 5 -63 0 -22 4
-29 15 -24 8 3 21 -1 29 -9 12 -13 15 -13 20 0 3 9 18 15 36 15 29 0 40 -13
20 -25 -13 -8 -13 -25 -1 -25 5 0 17 7 25 16 23 22 20 8 -5 -25 -18 -25 -19
-33 -10 -69 6 -22 17 -43 24 -45 7 -3 5 -6 -5 -6 -10 -1 -18 -8 -18 -16 0 -19
32 -33 38 -17 2 7 10 12 18 12 8 0 14 9 14 21 0 15 5 19 15 15 9 -3 15 0 15 9
0 8 -4 15 -10 15 -5 0 -10 7 -10 15 0 8 -4 15 -10 15 -5 0 -10 12 -10 26 0 38
-22 118 -34 126 -6 4 -14 -2 -18 -13 -9 -23 -33 -21 -33 2 0 8 -4 24 -8 37 -9
24 10 52 36 52 21 0 40 26 33 47 -2 10 -8 61 -11 113 -3 52 -9 113 -11 135 -3
22 -9 92 -14 155 -5 63 -11 126 -14 140 -2 14 -5 28 -5 33 -1 8 -29 8 -48 0z"/>
<path d="M8646 6403 c-6 -14 -5 -15 5 -6 7 7 10 15 7 18 -3 3 -9 -2 -12 -12z"/>
<path d="M8673 6374 c-23 -22 -31 -54 -13 -54 6 0 10 9 10 20 0 23 10 26 28 8
9 -9 12 -8 12 8 0 34 -14 41 -37 18z"/>
<path d="M8721 6354 c0 -11 3 -14 6 -6 3 7 2 16 -1 19 -3 4 -6 -2 -5 -13z"/>
<path d="M5377 6313 c-2 -4 -1 -17 3 -28 7 -19 8 -19 15 -2 8 18 -9 46 -18 30z"/>
<path d="M5350 6245 c0 -8 4 -15 9 -15 5 0 11 7 15 15 3 9 0 15 -9 15 -8 0
-15 -7 -15 -15z"/>
<path d="M8542 6244 c-6 -7 -12 -18 -12 -24 0 -7 -10 -20 -22 -30 -27 -21 -32
-70 -8 -70 21 0 45 17 46 32 1 19 15 51 30 68 11 13 10 17 -4 26 -13 8 -21 8
-30 -2z"/>
<path d="M8452 6238 c5 -15 28 -18 29 -3 0 6 -7 12 -17 13 -10 3 -15 -1 -12
-10z"/>
<path d="M5320 6180 c0 -5 5 -10 10 -10 6 0 10 5 10 10 0 6 -4 10 -10 10 -5 0
-10 -4 -10 -10z"/>
<path d="M3735 5880 c-3 -5 -1 -10 4 -10 6 0 11 5 11 10 0 6 -2 10 -4 10 -3 0
-8 -4 -11 -10z"/>
<path d="M8310 5871 c0 -5 5 -13 10 -16 6 -3 10 -2 10 4 0 5 -4 13 -10 16 -5
3 -10 2 -10 -4z"/>
<path d="M7991 5840 c-1 -21 36 -66 46 -57 4 5 0 13 -10 19 -10 5 -22 19 -27
31 -5 13 -9 16 -9 7z"/>
<path d="M7920 5790 c0 -5 5 -10 11 -10 5 0 7 5 4 10 -3 6 -8 10 -11 10 -2 0
-4 -4 -4 -10z"/>
<path d="M3740 5780 c0 -5 5 -10 11 -10 5 0 7 5 4 10 -3 6 -8 10 -11 10 -2 0
-4 -4 -4 -10z"/>
<path d="M3960 5760 c0 -5 5 -10 10 -10 6 0 10 5 10 10 0 6 -4 10 -10 10 -5 0
-10 -4 -10 -10z"/>
<path d="M3600 5705 c0 -8 5 -15 10 -15 6 0 10 7 10 15 0 8 -4 15 -10 15 -5 0
-10 -7 -10 -15z"/>
<path d="M7750 5710 c0 -5 5 -10 11 -10 5 0 7 5 4 10 -3 6 -8 10 -11 10 -2 0
-4 -4 -4 -10z"/>
<path d="M3535 5700 c-3 -5 -1 -10 4 -10 6 0 11 5 11 10 0 6 -2 10 -4 10 -3 0
-8 -4 -11 -10z"/>
<path d="M3755 5700 c-9 -15 -9 -33 1 -80 10 -44 24 2 16 51 -6 33 -10 40 -17
29z"/>
<path d="M3898 5673 c7 -3 16 -2 19 1 4 3 -2 6 -13 5 -11 0 -14 -3 -6 -6z"/>
<path d="M3792 5644 c1 -9 9 -19 16 -22 9 -3 13 2 10 14 -1 9 -9 19 -16 22 -9
3 -13 -2 -10 -14z"/>
<path d="M3935 5641 c-3 -5 -1 -12 5 -16 5 -3 10 1 10 9 0 18 -6 21 -15 7z"/>
<path d="M7740 5609 c0 -5 5 -7 10 -4 6 3 10 8 10 11 0 2 -4 4 -10 4 -5 0 -10
-5 -10 -11z"/>
<path d="M3750 5530 c0 -5 -7 -10 -15 -10 -8 0 -15 -7 -15 -15 0 -8 8 -15 19
-15 13 0 19 7 19 25 0 14 -2 25 -4 25 -2 0 -4 -4 -4 -10z"/>
<path d="M4608 5523 c7 -3 16 -2 19 1 4 3 -2 6 -13 5 -11 0 -14 -3 -6 -6z"/>
<path d="M4520 5490 c-24 -8 -24 -8 7 -9 17 -1 35 4 38 9 7 11 -9 11 -45 0z"/>
<path d="M4490 5460 c0 -5 12 -10 26 -10 14 0 23 4 19 10 -3 6 -15 10 -26 10
-10 0 -19 -4 -19 -10z"/>
<path d="M4110 5415 c0 -14 5 -25 10 -25 6 0 10 11 10 25 0 14 -4 25 -10 25
-5 0 -10 -11 -10 -25z"/>
<path d="M7751 5428 c0 -10 -9 -18 -18 -18 -13 0 -14 -3 -5 -12 16 -16 36 3
29 28 -4 17 -5 17 -6 2z"/>
<path d="M4445 5390 c-3 -5 -1 -10 4 -10 6 0 11 5 11 10 0 6 -2 10 -4 10 -3 0
-8 -4 -11 -10z"/>
<path d="M3638 5353 c7 -3 16 -2 19 1 4 3 -2 6 -13 5 -11 0 -14 -3 -6 -6z"/>
<path d="M4615 5180 c-3 -5 -1 -10 4 -10 6 0 11 5 11 10 0 6 -2 10 -4 10 -3 0
-8 -4 -11 -10z"/>
<path d="M4601 5077 c-5 -13 -16 -29 -25 -36 -20 -16 -21 -41 -2 -41 21 0 38
27 42 65 4 40 -3 45 -15 12z"/>
<path d="M5250 5045 c0 -8 -7 -15 -15 -15 -8 0 -15 -7 -15 -15 0 -8 4 -15 9
-15 5 0 11 7 15 15 3 8 12 15 20 15 10 0 13 6 10 15 -4 8 -10 15 -15 15 -5 0
-9 -7 -9 -15z"/>
<path d="M4650 4970 c0 -5 7 -10 16 -10 8 0 12 5 9 10 -3 6 -10 10 -16 10 -5
0 -9 -4 -9 -10z"/>
<path d="M4632 4950 c0 -14 2 -19 5 -12 2 6 2 18 0 25 -3 6 -5 1 -5 -13z"/>
<path d="M4890 4930 c0 -5 5 -10 10 -10 6 0 10 5 10 10 0 6 -4 10 -10 10 -5 0
-10 -4 -10 -10z"/>
<path d="M8420 374 c0 -17 22 -14 28 4 2 7 -3 12 -12 12 -9 0 -16 -7 -16 -16z"/>
</g>
</svg>
